<svg id="svg" version="1.1" xmlns="http://www.w3.org/2000/svg" xmlns:xlink="http://www.w3.org/1999/xlink" width="400" height="374.02597402597405" viewBox="0, 0, 400,374.02597402597405"><g id="svgg"><path id="path0" d="M196.071 43.652 C 193.836 43.998,191.546 44.775,188.400 46.255 C 186.548 47.126,184.359 47.959,183.536 48.105 C 182.713 48.252,181.241 48.683,180.265 49.062 C 179.289 49.442,177.674 49.734,176.676 49.712 C 175.330 49.682,174.083 50.022,171.855 51.028 C 170.201 51.775,168.702 52.386,168.522 52.387 C 167.628 52.390,162.245 57.523,159.679 60.818 C 158.082 62.869,155.941 65.413,154.921 66.472 C 151.077 70.463,147.794 77.190,145.885 84.985 C 145.081 88.272,143.915 92.426,143.294 94.217 C 141.390 99.713,140.753 116.686,142.231 122.555 C 142.569 123.898,142.573 124.877,142.248 126.642 C 141.846 128.824,141.885 129.142,142.894 131.928 C 143.520 133.655,144.079 136.142,144.235 137.886 C 144.381 139.532,144.736 141.890,145.023 143.124 C 145.311 144.359,145.548 147.264,145.551 149.579 C 145.557 154.053,145.622 154.252,146.664 152.966 C 148.532 150.659,151.736 156.737,153.607 166.137 C 154.511 170.679,155.590 173.558,156.408 173.608 C 156.511 173.614,156.644 166.337,156.703 157.437 C 156.816 140.577,157.060 136.923,158.315 133.313 C 159.788 129.075,160.200 126.632,159.746 124.828 C 159.435 123.591,159.445 122.049,159.786 118.742 C 160.037 116.306,160.362 112.965,160.508 111.319 C 160.849 107.471,161.432 106.184,164.224 103.102 C 165.482 101.715,166.511 100.436,166.511 100.261 C 166.511 100.086,167.556 99.330,168.833 98.581 C 170.110 97.833,171.567 96.896,172.071 96.499 C 172.727 95.984,173.321 95.841,174.156 95.997 C 174.997 96.155,175.587 96.010,176.263 95.478 C 177.476 94.524,180.138 93.812,181.431 94.096 C 182.365 94.301,187.840 93.837,190.764 93.304 C 191.650 93.143,192.271 92.678,192.930 91.682 C 194.646 89.089,196.445 89.176,196.445 91.853 C 196.445 92.436,199.624 94.081,200.138 93.763 C 200.328 93.645,200.931 93.782,201.478 94.066 C 202.285 94.484,204.583 94.544,213.653 94.383 C 224.300 94.193,224.936 94.221,227.009 94.961 C 228.207 95.389,229.852 95.849,230.666 95.983 C 232.241 96.243,234.131 97.582,234.878 98.967 C 235.132 99.436,235.838 99.908,236.477 100.036 C 237.107 100.162,237.715 100.564,237.828 100.928 C 237.941 101.292,238.185 101.843,238.370 102.152 C 241.441 107.280,243.363 113.389,243.966 119.948 C 244.133 121.772,244.579 123.695,245.093 124.812 C 245.561 125.829,246.319 127.671,246.779 128.906 C 247.238 130.140,248.209 132.687,248.935 134.566 C 250.623 138.931,250.931 140.538,251.654 148.737 C 251.981 152.442,252.405 156.651,252.598 158.092 C 252.790 159.532,253.058 164.548,253.193 169.238 C 253.418 177.049,253.716 179.283,254.291 177.479 C 254.410 177.106,255.082 175.530,255.785 173.978 C 256.742 171.863,257.063 170.639,257.063 169.096 C 257.063 161.410,260.842 152.582,264.534 151.645 C 265.974 151.279,266.664 149.508,266.250 147.240 C 266.137 146.623,266.295 141.656,266.601 136.202 C 266.907 130.748,267.159 124.035,267.161 121.283 C 267.164 118.531,267.354 113.444,267.585 109.978 C 268.259 99.859,267.721 97.451,263.352 91.034 C 256.573 81.075,252.101 77.422,246.024 76.881 C 240.776 76.413,239.054 74.896,235.085 67.247 C 233.095 63.412,229.102 58.646,225.141 55.379 C 223.519 54.041,221.164 52.059,219.907 50.973 C 213.531 45.467,203.748 42.462,196.071 43.652 M211.157 66.885 C 211.689 67.806,210.818 68.356,210.179 67.503 C 209.526 66.630,209.528 66.604,210.250 66.604 C 210.660 66.604,211.067 66.731,211.157 66.885 M200.988 69.878 C 201.521 71.218,201.600 73.413,201.123 73.579 C 200.503 73.793,199.065 71.321,199.065 70.042 C 199.065 68.463,200.382 68.351,200.988 69.878 M218.592 137.749 C 217.608 138.033,217.376 138.277,217.469 138.932 C 217.633 140.081,222.942 140.144,224.642 139.017 C 226.757 137.616,222.297 136.682,218.592 137.749 M180.543 139.062 C 181.113 139.632,181.202 139.632,181.772 139.062 C 182.342 138.492,182.298 138.447,181.157 138.447 C 180.017 138.447,179.972 138.492,180.543 139.062 M227.421 150.327 C 227.226 153.098,227.577 153.471,228.574 151.556 C 229.524 149.735,229.591 148.714,228.781 148.403 C 227.697 147.987,227.573 148.162,227.421 150.327 M177.974 149.109 C 178.092 149.417,178.340 149.575,178.524 149.461 C 179.052 149.135,178.914 148.550,178.309 148.550 C 177.975 148.550,177.844 148.770,177.974 149.109 M182.966 149.281 C 183.249 149.811,183.214 150.429,182.835 151.526 C 182.549 152.359,182.365 153.040,182.427 153.040 C 182.489 153.040,182.803 153.142,183.126 153.265 C 183.946 153.580,184.532 151.869,184.237 150.021 C 184.058 148.906,183.829 148.550,183.288 148.550 C 182.696 148.550,182.641 148.675,182.966 149.281 M165.194 221.615 C 164.992 222.075,164.460 222.503,164.012 222.567 C 162.633 222.763,162.380 223.520,162.165 228.115 C 161.927 233.171,161.576 234.860,160.275 237.189 C 158.913 239.630,156.090 243.599,154.665 245.078 C 153.977 245.792,153.414 246.515,153.414 246.683 C 153.414 247.197,151.817 249.313,150.337 250.759 C 148.987 252.079,147.763 252.483,144.247 252.767 C 142.964 252.870,140.968 253.344,138.634 254.099 C 137.399 254.499,134.004 255.414,131.089 256.132 C 125.785 257.438,122.768 258.494,115.061 261.741 C 112.797 262.695,110.366 263.648,109.660 263.860 C 108.953 264.072,108.027 264.464,107.602 264.731 C 106.589 265.367,101.218 266.885,95.603 268.123 C 90.754 269.193,85.495 271.081,80.449 273.564 C 78.700 274.425,76.595 275.334,75.772 275.583 C 73.487 276.276,74.317 279.571,77.618 282.913 C 77.940 283.239,78.204 283.617,78.204 283.754 C 78.204 283.892,78.499 284.313,78.859 284.690 C 79.219 285.068,79.766 285.769,80.075 286.249 C 80.384 286.728,80.889 287.389,81.197 287.718 C 81.506 288.046,82.788 289.576,84.047 291.117 C 87.931 295.874,88.301 296.276,95.305 303.333 C 99.051 307.108,102.284 310.196,102.489 310.196 C 102.695 310.196,102.997 310.412,103.162 310.674 C 103.569 311.325,108.754 315.433,111.304 317.125 C 112.444 317.882,113.377 318.653,113.377 318.839 C 113.377 319.025,113.570 319.177,113.806 319.177 C 114.042 319.177,114.955 319.766,115.834 320.486 C 116.713 321.207,117.532 321.796,117.653 321.796 C 117.775 321.796,118.681 322.343,119.667 323.012 C 122.303 324.801,122.834 325.129,123.724 325.516 C 124.167 325.708,124.647 326.055,124.790 326.286 C 124.932 326.517,125.412 326.873,125.855 327.077 C 126.298 327.281,127.334 327.856,128.157 328.356 C 128.980 328.856,129.906 329.370,130.215 329.499 C 130.955 329.809,139.118 333.697,140.318 334.312 C 140.833 334.575,141.717 334.901,142.283 335.036 C 142.848 335.171,143.312 335.446,143.312 335.648 C 143.312 335.850,143.609 336.015,143.972 336.015 C 144.335 336.015,145.261 336.352,146.029 336.763 C 146.796 337.175,147.742 337.512,148.129 337.512 C 148.516 337.512,149.042 337.764,149.298 338.073 C 149.555 338.382,150.125 338.634,150.566 338.634 C 151.007 338.634,151.996 338.971,152.764 339.383 C 153.532 339.794,154.506 340.131,154.928 340.131 C 155.351 340.131,156.176 340.379,156.761 340.682 C 157.347 340.984,158.559 341.345,159.456 341.482 C 160.352 341.619,161.540 341.961,162.096 342.241 C 162.651 342.521,163.712 342.750,164.453 342.750 C 165.193 342.750,166.254 342.983,166.810 343.267 C 168.861 344.316,173.965 345.370,176.997 345.370 C 178.808 345.370,180.423 345.574,181.029 345.881 C 181.691 346.216,184.102 346.466,188.026 346.607 C 191.319 346.726,195.439 347.022,197.182 347.266 C 200.003 347.661,202.732 347.619,208.232 347.093 C 209.055 347.015,212.675 346.835,216.277 346.695 C 220.319 346.537,223.326 346.244,224.135 345.930 C 224.855 345.649,226.920 345.343,228.724 345.249 C 230.528 345.155,232.214 344.904,232.470 344.691 C 232.726 344.478,234.028 344.185,235.364 344.040 C 236.700 343.894,237.976 343.630,238.201 343.453 C 238.427 343.275,239.605 342.975,240.821 342.786 C 242.036 342.597,243.704 342.183,244.528 341.865 C 245.351 341.547,246.370 341.279,246.791 341.270 C 247.213 341.261,247.752 341.060,247.989 340.823 C 248.226 340.586,249.144 340.262,250.028 340.103 C 251.985 339.751,255.025 338.764,256.372 338.043 C 256.918 337.751,257.598 337.512,257.883 337.512 C 258.168 337.512,259.062 337.175,259.869 336.763 C 260.676 336.352,261.554 336.015,261.819 336.015 C 262.084 336.015,262.301 335.858,262.301 335.666 C 262.301 335.474,262.680 335.209,263.143 335.077 C 263.914 334.858,268.833 332.612,270.159 331.875 C 270.468 331.703,272.236 330.777,274.088 329.816 C 275.940 328.855,278.129 327.675,278.952 327.193 C 279.775 326.711,280.954 326.061,281.572 325.748 C 282.948 325.050,283.996 324.378,284.669 323.761 C 284.950 323.503,285.360 323.293,285.579 323.293 C 285.799 323.293,287.125 322.367,288.526 321.235 C 289.927 320.103,291.233 319.177,291.427 319.177 C 291.622 319.177,291.878 318.924,291.997 318.616 C 292.115 318.307,292.444 318.054,292.727 318.054 C 293.011 318.054,293.547 317.717,293.920 317.306 C 294.292 316.894,294.736 316.558,294.906 316.558 C 295.076 316.558,295.850 315.968,296.626 315.247 C 298.710 313.310,299.045 313.029,300.337 312.136 C 304.507 309.253,315.625 297.957,320.602 291.545 C 321.505 290.382,322.366 289.345,322.514 289.242 C 323.425 288.609,329.708 280.019,331.057 277.562 C 332.041 275.770,332.040 275.772,331.431 275.769 C 331.174 275.768,330.527 275.539,329.993 275.261 C 329.460 274.982,328.365 274.632,327.561 274.481 C 326.757 274.331,325.931 274.070,325.725 273.902 C 325.519 273.733,324.425 273.341,323.293 273.030 C 315.950 271.013,309.780 268.994,308.891 268.318 C 308.683 268.160,306.745 267.389,304.584 266.605 C 302.423 265.821,299.645 264.729,298.410 264.179 C 297.175 263.629,294.733 262.710,292.984 262.137 C 291.235 261.564,289.635 260.963,289.429 260.802 C 289.224 260.640,288.466 260.333,287.746 260.119 C 286.003 259.602,277.834 256.712,274.088 255.288 C 268.109 253.014,266.556 252.284,263.858 250.480 C 262.347 249.470,260.292 248.138,259.289 247.521 C 258.287 246.904,255.754 244.504,253.660 242.189 C 247.476 235.351,247.380 235.612,247.224 259.682 C 247.161 269.228,247.021 272.109,246.482 274.836 C 246.117 276.688,245.663 279.084,245.475 280.159 C 245.145 282.042,244.692 283.148,242.598 287.184 C 241.666 288.979,241.636 289.232,241.855 293.389 C 242.113 298.305,241.812 299.263,240.143 298.844 C 238.434 298.415,237.936 294.932,238.798 289.429 C 239.016 288.034,237.914 288.659,234.505 291.862 C 227.693 298.263,226.336 299.937,223.631 305.277 C 223.251 306.028,222.561 307.063,222.098 307.577 C 221.634 308.092,220.630 309.563,219.865 310.846 C 219.100 312.129,218.272 313.308,218.025 313.465 C 217.778 313.623,216.909 314.734,216.093 315.936 C 212.996 320.499,211.283 321.426,209.885 319.295 C 208.641 317.400,207.851 317.181,208.180 318.821 C 208.316 319.504,208.679 320.340,208.985 320.678 C 210.836 322.724,207.614 328.949,205.409 327.586 C 204.735 327.169,202.068 321.982,202.063 321.077 C 202.060 320.579,201.827 319.905,201.545 319.580 C 201.263 319.256,200.648 317.811,200.178 316.370 C 199.708 314.930,199.116 313.414,198.862 313.003 C 198.608 312.591,198.286 311.605,198.147 310.811 C 197.869 309.231,197.008 308.281,194.052 306.293 C 193.002 305.587,191.686 304.576,191.130 304.048 C 190.573 303.519,189.996 303.087,189.848 303.087 C 189.700 303.087,188.362 301.906,186.874 300.463 C 184.416 298.081,184.081 297.873,183.217 298.202 C 182.321 298.542,182.173 298.412,180.656 295.938 C 179.770 294.494,178.535 292.607,177.910 291.745 C 175.256 288.081,173.943 285.077,173.061 280.650 C 172.589 278.276,172.017 275.575,171.790 274.649 C 170.718 270.268,169.553 262.022,169.517 258.559 C 169.503 257.222,169.153 254.359,168.738 252.198 C 167.711 246.842,167.307 241.717,167.247 233.302 C 167.175 223.185,166.411 218.840,165.194 221.615 M211.646 331.811 C 212.128 332.126,211.654 333.770,211.081 333.770 C 209.856 333.770,209.561 333.339,210.160 332.426 C 210.791 331.462,210.988 331.381,211.646 331.811 " stroke="none" fill="#313736" fill-rule="evenodd"></path><path id="path1" d="M0.000 187.091 L 0.000 374.181 200.000 374.181 L 400.000 374.181 400.000 187.091 L 400.000 0.000 200.000 0.000 L 0.000 0.000 0.000 187.091 M210.851 39.847 C 214.144 40.153,218.017 40.412,219.457 40.423 C 220.898 40.435,222.834 40.611,223.761 40.815 C 224.687 41.018,226.791 41.360,228.438 41.574 C 230.084 41.788,232.273 42.200,233.302 42.489 C 234.331 42.779,235.969 43.113,236.942 43.232 C 237.914 43.351,238.799 43.591,238.907 43.766 C 239.014 43.940,239.987 44.203,241.067 44.349 C 242.147 44.496,243.486 44.848,244.041 45.133 C 244.597 45.417,245.523 45.651,246.099 45.652 C 246.675 45.654,247.617 45.900,248.192 46.200 C 248.766 46.499,249.861 46.857,250.624 46.995 C 251.387 47.132,252.186 47.382,252.400 47.550 C 252.614 47.718,253.456 48.025,254.271 48.231 C 256.150 48.707,259.323 49.859,260.056 50.333 C 260.590 50.678,261.367 51.003,264.371 52.136 C 265.098 52.410,265.890 52.831,266.130 53.071 C 266.370 53.311,266.828 53.509,267.147 53.510 C 267.466 53.512,268.232 53.847,268.849 54.256 C 269.467 54.665,270.267 55.001,270.627 55.002 C 270.987 55.004,271.282 55.170,271.282 55.372 C 271.282 55.574,271.745 55.849,272.311 55.983 C 272.877 56.118,273.592 56.438,273.901 56.695 C 274.210 56.952,275.442 57.645,276.641 58.235 C 279.243 59.516,280.806 60.380,282.320 61.371 C 282.937 61.775,283.863 62.315,284.378 62.570 C 284.892 62.826,285.398 63.122,285.500 63.230 C 285.603 63.337,286.698 64.109,287.933 64.944 C 292.130 67.785,294.291 69.323,295.853 70.584 C 296.711 71.276,297.581 71.843,297.787 71.843 C 297.992 71.843,298.216 71.990,298.285 72.170 C 298.354 72.349,299.504 73.371,300.842 74.439 C 307.865 80.050,315.941 88.120,321.646 95.229 C 322.637 96.464,323.565 97.558,323.707 97.661 C 323.999 97.872,326.920 101.632,327.783 102.910 C 328.092 103.366,328.513 103.934,328.718 104.172 C 329.561 105.144,334.612 112.538,335.007 113.377 C 335.153 113.686,335.931 114.949,336.737 116.183 C 338.752 119.271,344.023 129.884,345.750 134.331 C 346.189 135.463,346.765 136.894,347.029 137.512 C 347.461 138.521,348.008 139.996,349.456 144.060 C 349.713 144.780,350.137 146.135,350.399 147.071 C 350.660 148.006,351.067 149.132,351.302 149.572 C 351.538 150.012,351.732 150.762,351.733 151.238 C 351.734 151.715,351.960 152.536,352.235 153.062 C 352.510 153.589,352.854 154.768,353.000 155.682 C 353.145 156.596,353.499 158.101,353.785 159.027 C 354.429 161.111,355.021 164.020,355.497 167.446 C 355.697 168.887,356.034 170.571,356.245 171.188 C 356.456 171.805,356.786 174.415,356.978 176.988 C 357.170 179.560,357.498 182.675,357.707 183.910 C 358.285 187.325,358.165 202.698,357.526 207.109 C 357.228 209.167,356.980 211.794,356.976 212.946 C 356.972 214.098,356.635 216.624,356.227 218.559 C 355.818 220.494,355.481 222.559,355.478 223.149 C 355.475 223.739,355.230 225.002,354.933 225.955 C 354.637 226.909,354.225 228.531,354.018 229.560 C 353.311 233.073,352.563 236.044,352.262 236.531 C 352.097 236.798,351.838 237.696,351.688 238.527 C 351.388 240.175,350.454 243.100,349.632 244.958 C 349.346 245.607,349.111 246.453,349.111 246.840 C 349.111 247.226,348.884 247.874,348.606 248.280 C 348.328 248.686,347.985 249.523,347.845 250.140 C 347.603 251.200,347.069 252.508,345.885 254.941 C 345.601 255.524,345.370 256.179,345.370 256.397 C 345.370 256.847,344.660 258.408,341.668 264.546 C 340.514 266.913,339.454 268.937,339.312 269.044 C 339.171 269.151,338.872 269.656,338.649 270.167 C 338.425 270.677,337.833 271.768,337.334 272.591 C 336.834 273.414,336.302 274.341,336.152 274.649 C 336.001 274.958,335.591 275.631,335.240 276.146 C 334.889 276.660,333.955 278.092,333.163 279.326 C 332.372 280.561,331.590 281.740,331.426 281.946 C 331.262 282.152,330.467 283.246,329.658 284.378 C 328.850 285.510,327.956 286.688,327.672 286.997 C 327.388 287.306,326.749 288.148,326.253 288.868 C 325.757 289.588,325.140 290.312,324.883 290.477 C 324.626 290.642,324.415 290.936,324.415 291.132 C 324.415 291.327,324.121 291.794,323.761 292.168 C 323.400 292.542,321.927 294.247,320.486 295.955 C 314.794 302.708,308.887 308.673,303.819 312.791 C 302.696 313.703,301.609 314.635,301.403 314.861 C 301.197 315.088,299.766 316.235,298.223 317.409 C 296.679 318.584,295.164 319.772,294.855 320.049 C 294.546 320.325,293.999 320.658,293.639 320.788 C 293.279 320.918,292.984 321.198,292.984 321.410 C 292.984 321.622,292.798 321.796,292.570 321.796 C 292.213 321.796,291.499 322.296,289.352 324.047 C 289.103 324.249,288.807 324.415,288.693 324.415 C 288.579 324.415,287.680 324.963,286.694 325.631 C 284.529 327.101,284.113 327.360,281.019 329.171 C 276.894 331.585,276.224 331.947,274.930 332.458 C 274.673 332.559,274.210 332.812,273.901 333.019 C 273.592 333.227,272.919 333.564,272.404 333.769 C 271.890 333.974,271.216 334.292,270.907 334.474 C 270.359 334.799,265.475 337.088,263.237 338.070 C 262.619 338.341,261.345 338.915,260.406 339.347 C 259.466 339.778,258.482 340.131,258.218 340.131 C 257.955 340.131,257.292 340.370,256.746 340.662 C 255.585 341.284,252.571 342.305,250.702 342.710 C 249.981 342.866,249.055 343.172,248.644 343.390 C 248.232 343.608,247.138 343.910,246.211 344.061 C 245.285 344.212,244.073 344.568,243.517 344.852 C 242.961 345.137,241.982 345.370,241.341 345.370 C 240.700 345.370,239.809 345.565,239.362 345.805 C 238.914 346.044,237.452 346.456,236.112 346.720 C 234.772 346.983,232.834 347.369,231.805 347.577 C 228.030 348.341,224.968 348.762,220.580 349.122 C 218.110 349.325,213.985 349.688,211.413 349.929 C 205.473 350.485,199.765 350.485,193.826 349.929 C 191.254 349.688,187.128 349.325,184.659 349.122 C 179.166 348.672,176.099 348.191,169.130 346.689 C 166.031 346.021,163.632 345.411,162.208 344.929 C 161.590 344.720,160.144 344.340,158.993 344.083 C 157.842 343.826,156.677 343.478,156.403 343.308 C 156.128 343.139,155.302 342.871,154.566 342.713 C 152.682 342.309,149.667 341.291,148.492 340.662 C 147.946 340.370,147.214 340.131,146.866 340.131 C 146.518 340.131,145.786 339.890,145.240 339.595 C 144.694 339.301,143.447 338.711,142.470 338.286 C 141.492 337.860,139.958 337.175,139.061 336.763 C 138.164 336.352,137.310 336.015,137.163 336.015 C 137.017 336.015,136.644 335.762,136.336 335.454 C 136.027 335.145,135.470 334.892,135.099 334.892 C 134.727 334.892,134.213 334.640,133.957 334.331 C 133.701 334.022,133.333 333.770,133.140 333.770 C 132.805 333.770,129.535 332.244,128.344 331.532 C 128.036 331.348,126.099 330.231,124.041 329.050 C 121.983 327.870,119.501 326.344,118.526 325.660 C 117.550 324.975,116.596 324.415,116.405 324.415 C 116.215 324.415,116.002 324.286,115.934 324.127 C 115.865 323.969,114.857 323.213,113.694 322.448 C 112.531 321.682,111.184 320.720,110.701 320.310 C 110.218 319.900,108.450 318.508,106.773 317.219 C 99.981 311.996,94.189 306.637,88.820 300.610 C 83.837 295.016,80.091 290.579,79.293 289.324 C 78.938 288.765,78.214 287.802,77.684 287.184 C 76.416 285.705,76.332 285.593,75.024 283.630 C 74.408 282.703,73.812 281.862,73.702 281.759 C 73.498 281.569,70.844 277.599,70.159 276.459 C 69.953 276.116,69.207 274.853,68.500 273.652 C 67.793 272.451,67.117 271.384,66.998 271.282 C 66.878 271.179,65.588 268.653,64.130 265.669 C 60.535 258.310,59.869 256.860,59.869 256.397 C 59.869 256.179,59.637 255.524,59.354 254.941 C 58.343 252.865,57.672 251.249,57.437 250.327 C 57.306 249.813,56.978 248.887,56.709 248.269 C 56.074 246.814,55.433 244.948,54.840 242.827 C 54.578 241.891,54.172 240.765,53.936 240.325 C 53.701 239.885,53.507 239.135,53.506 238.659 C 53.504 238.182,53.269 237.343,52.982 236.794 C 52.696 236.245,52.345 235.066,52.202 234.175 C 52.060 233.283,51.716 231.796,51.438 230.870 C 50.846 228.897,50.306 226.296,49.573 221.890 C 49.282 220.140,48.874 218.036,48.666 217.212 C 48.458 216.389,48.283 214.736,48.278 213.539 C 48.273 212.341,48.007 209.563,47.687 207.365 C 46.688 200.503,47.256 181.297,48.701 173.059 C 48.918 171.824,49.317 169.383,49.589 167.633 C 49.861 165.884,50.264 163.737,50.486 162.862 C 51.428 159.142,51.700 157.991,52.052 156.221 C 52.256 155.192,52.668 153.819,52.966 153.171 C 53.264 152.522,53.508 151.630,53.508 151.188 C 53.508 150.746,53.738 149.929,54.019 149.373 C 54.300 148.818,54.651 147.698,54.798 146.885 C 54.946 146.073,55.305 145.067,55.597 144.651 C 55.889 144.234,56.133 143.468,56.139 142.948 C 56.146 142.427,56.398 141.675,56.700 141.276 C 57.003 140.876,57.255 140.287,57.262 139.966 C 57.269 139.645,57.600 138.709,57.998 137.886 C 58.396 137.063,58.727 136.192,58.734 135.952 C 58.741 135.711,58.995 135.038,59.298 134.455 C 59.601 133.872,60.129 132.722,60.470 131.899 C 62.323 127.431,63.478 125.023,65.797 120.798 C 67.452 117.781,70.792 112.140,71.077 111.880 C 71.476 111.516,72.965 109.288,72.965 109.054 C 72.965 108.924,73.559 108.033,74.285 107.075 C 75.011 106.116,76.807 103.732,78.275 101.777 C 79.744 99.822,81.212 97.936,81.539 97.586 C 81.866 97.236,82.303 96.730,82.510 96.463 C 87.720 89.758,97.474 79.876,103.835 74.858 C 105.482 73.559,106.885 72.350,106.954 72.170 C 107.022 71.990,107.246 71.843,107.452 71.843 C 107.657 71.843,108.527 71.276,109.385 70.584 C 110.948 69.323,113.108 67.785,117.306 64.944 C 118.541 64.109,119.635 63.337,119.738 63.230 C 119.841 63.122,120.346 62.826,120.861 62.570 C 121.375 62.315,122.301 61.771,122.919 61.361 C 123.536 60.951,124.546 60.355,125.164 60.035 C 128.217 58.456,131.039 56.907,131.445 56.587 C 131.695 56.391,132.362 56.120,132.928 55.985 C 133.494 55.849,133.957 55.574,133.957 55.372 C 133.957 55.170,134.252 55.004,134.612 55.002 C 134.972 55.001,135.772 54.665,136.389 54.256 C 137.007 53.847,137.786 53.512,138.121 53.510 C 138.456 53.509,138.926 53.272,139.165 52.983 C 139.404 52.695,140.028 52.352,140.551 52.220 C 141.073 52.089,142.540 51.512,143.809 50.937 C 145.891 49.996,147.502 49.368,151.543 47.923 C 152.264 47.666,153.527 47.296,154.350 47.101 C 155.173 46.906,156.377 46.500,157.026 46.198 C 157.674 45.897,158.651 45.650,159.196 45.650 C 159.741 45.650,160.642 45.417,161.197 45.133 C 161.753 44.848,163.091 44.496,164.172 44.349 C 165.252 44.203,166.224 43.940,166.332 43.766 C 166.440 43.591,167.324 43.347,168.297 43.224 C 169.270 43.101,170.907 42.763,171.936 42.473 C 172.965 42.184,175.154 41.776,176.801 41.566 C 178.447 41.357,180.552 41.018,181.478 40.815 C 182.404 40.611,184.509 40.423,186.155 40.397 C 187.802 40.371,191.338 40.133,194.013 39.868 C 200.695 39.205,203.885 39.201,210.851 39.847 M219.169 150.966 C 218.598 151.383,218.585 151.504,219.063 151.901 C 219.686 152.418,220.393 152.129,220.393 151.356 C 220.393 150.584,219.904 150.428,219.169 150.966 M175.090 152.137 C 174.689 152.621,174.697 152.782,175.141 153.063 C 175.959 153.581,176.239 153.485,176.239 152.688 C 176.239 151.697,175.679 151.428,175.090 152.137 M202.954 316.266 C 203.086 316.929,203.444 317.611,203.749 317.781 C 204.054 317.952,204.303 318.336,204.303 318.634 C 204.303 318.933,204.457 319.177,204.645 319.177 C 205.000 319.177,204.790 318.347,203.908 316.277 C 203.242 314.712,202.642 314.705,202.954 316.266 " stroke="none" fill="#fafafa" fill-rule="evenodd"></path><path id="path2" d="M196.445 42.622 C 192.922 42.880,189.428 43.949,186.529 45.657 C 185.912 46.020,184.818 46.433,184.097 46.573 C 183.377 46.713,181.669 47.244,180.302 47.753 C 178.677 48.358,177.477 48.593,176.834 48.431 C 176.293 48.296,175.391 48.359,174.829 48.573 C 169.999 50.408,168.423 51.098,166.752 52.110 C 164.781 53.305,161.445 56.483,159.775 58.756 C 158.291 60.778,154.076 65.581,152.927 66.559 C 151.944 67.396,149.906 70.862,149.159 72.965 C 148.976 73.480,148.626 74.153,148.380 74.462 C 147.575 75.474,145.619 80.293,145.253 82.168 C 144.446 86.290,142.726 92.453,141.954 93.986 C 140.412 97.048,139.533 112.623,140.701 116.197 C 140.905 116.821,141.124 120.442,141.188 124.242 C 141.278 129.597,141.435 131.403,141.888 132.273 C 143.347 135.079,144.448 144.366,143.973 149.860 C 143.566 154.567,143.846 156.900,145.070 158.995 C 145.974 160.543,146.019 160.854,145.798 163.971 C 145.619 166.502,145.696 167.616,146.121 168.633 C 146.458 169.441,146.681 171.173,146.685 173.011 C 146.690 175.970,147.155 177.858,147.569 176.603 C 148.373 174.160,147.865 162.414,146.906 161.278 C 146.263 160.517,147.228 156.904,147.923 157.468 C 148.165 157.664,148.667 157.884,149.039 157.958 C 150.202 158.188,152.140 164.257,153.211 171.023 C 153.327 171.755,154.288 173.860,155.348 175.700 C 158.059 180.410,159.500 183.665,159.643 185.407 C 159.996 189.708,160.327 190.668,161.258 190.093 C 162.252 189.479,161.231 179.067,159.931 176.553 C 158.681 174.135,158.199 157.840,158.980 144.376 C 159.042 143.315,160.212 144.275,160.909 145.958 C 161.526 147.446,161.591 147.415,164.111 144.444 C 167.340 140.637,172.442 139.576,179.420 141.261 C 186.665 143.010,193.353 140.357,189.028 137.450 C 188.344 136.990,186.997 136.517,186.034 136.399 C 185.072 136.280,182.937 135.942,181.291 135.646 C 179.645 135.351,177.517 135.011,176.563 134.891 C 175.536 134.761,174.558 134.373,174.165 133.939 C 172.708 132.328,167.272 132.547,167.256 134.217 C 167.255 134.382,166.800 134.729,166.246 134.986 C 163.229 136.387,161.535 133.173,163.142 129.096 C 164.281 126.207,164.522 121.495,163.695 118.305 C 162.487 113.650,163.180 110.218,166.094 106.412 C 168.884 102.769,172.940 99.752,175.164 99.665 C 175.927 99.635,177.113 99.440,177.799 99.231 C 178.485 99.022,179.481 98.756,180.013 98.639 C 180.545 98.522,181.620 97.918,182.403 97.296 C 183.613 96.334,184.147 96.165,185.974 96.165 C 187.155 96.165,188.774 95.891,189.571 95.557 C 191.118 94.907,195.829 95.011,198.129 95.746 C 201.179 96.719,203.193 97.073,205.239 96.996 C 206.473 96.950,209.841 96.816,212.722 96.700 C 216.814 96.535,218.370 96.613,219.832 97.057 C 222.996 98.018,225.759 98.768,227.094 99.027 C 229.997 99.592,238.720 109.457,238.730 112.186 C 238.731 112.533,238.999 113.321,239.326 113.938 C 239.652 114.556,240.063 116.408,240.240 118.054 C 240.416 119.701,240.675 121.762,240.815 122.634 C 240.987 123.703,240.915 124.408,240.596 124.793 C 240.206 125.262,240.239 125.495,240.779 126.091 C 241.623 127.025,241.275 129.213,240.157 129.996 C 239.363 130.552,239.343 131.382,240.066 133.863 C 240.486 135.304,238.224 135.013,236.433 133.396 C 234.837 131.953,233.870 131.791,232.180 132.683 C 230.433 133.604,225.032 135.080,223.405 135.080 C 221.885 135.080,217.354 135.930,215.271 136.606 C 213.651 137.132,212.159 140.076,212.167 142.730 C 212.170 143.770,212.296 144.453,212.447 144.247 C 212.734 143.857,213.947 143.034,214.593 142.792 C 214.799 142.715,216.230 142.476,217.774 142.261 C 219.317 142.046,222.180 141.584,224.135 141.236 C 234.070 139.464,242.127 141.156,243.440 145.291 C 243.772 146.339,244.671 147.026,245.729 147.041 C 246.800 147.057,248.333 148.677,249.253 150.765 C 250.657 153.955,251.516 172.611,250.416 176.021 C 250.155 176.827,250.050 177.825,250.181 178.239 C 250.312 178.652,250.403 179.761,250.382 180.702 C 250.339 182.621,250.593 183.723,251.076 183.723 C 251.254 183.723,251.495 183.428,251.613 183.068 C 251.730 182.708,252.512 182.085,253.351 181.684 C 254.897 180.945,255.624 179.950,256.098 177.923 C 256.242 177.306,256.962 175.575,257.697 174.076 C 258.902 171.621,259.000 171.194,258.689 169.773 C 258.338 168.174,258.645 166.134,259.886 161.797 C 260.647 159.141,261.391 158.564,263.860 158.717 C 266.387 158.873,267.061 157.327,264.943 156.233 C 263.332 155.400,263.303 153.789,264.898 153.789 C 265.504 153.789,266.103 153.957,266.230 154.163 C 266.821 155.119,268.379 154.573,268.098 153.508 C 267.540 151.386,267.301 144.902,267.593 139.799 C 267.760 136.895,267.903 131.066,267.911 126.848 C 267.920 122.629,268.095 117.409,268.300 115.248 C 269.869 98.706,268.521 94.053,259.086 83.442 C 258.629 82.928,257.721 81.881,257.069 81.116 C 254.467 78.062,249.902 75.870,244.341 75.005 C 242.010 74.642,239.607 72.824,238.456 70.553 C 237.461 68.590,236.871 67.617,234.130 63.424 C 230.335 57.617,228.010 55.306,220.361 49.734 C 211.666 43.401,206.559 41.882,196.445 42.622 M206.181 43.968 C 209.709 44.710,216.909 48.385,219.907 50.973 C 221.164 52.059,223.519 54.041,225.141 55.379 C 229.102 58.646,233.095 63.412,235.085 67.247 C 239.054 74.896,240.776 76.413,246.024 76.881 C 252.101 77.422,256.573 81.075,263.352 91.034 C 267.721 97.451,268.259 99.859,267.585 109.978 C 267.354 113.444,267.164 118.531,267.161 121.283 C 267.159 124.035,266.907 130.748,266.601 136.202 C 266.295 141.656,266.137 146.623,266.250 147.240 C 266.664 149.508,265.974 151.279,264.534 151.645 C 260.842 152.582,257.063 161.410,257.063 169.096 C 257.063 170.639,256.742 171.863,255.785 173.978 C 255.082 175.530,254.410 177.106,254.291 177.479 C 253.716 179.283,253.418 177.049,253.193 169.238 C 253.058 164.548,252.790 159.532,252.598 158.092 C 252.405 156.651,251.981 152.442,251.654 148.737 C 250.931 140.538,250.623 138.931,248.935 134.566 C 248.209 132.687,247.238 130.140,246.779 128.906 C 246.319 127.671,245.561 125.829,245.093 124.812 C 244.579 123.695,244.133 121.772,243.966 119.948 C 243.363 113.389,241.441 107.280,238.370 102.152 C 238.185 101.843,237.941 101.292,237.828 100.928 C 237.715 100.564,237.107 100.162,236.477 100.036 C 235.838 99.908,235.132 99.436,234.878 98.967 C 234.131 97.582,232.241 96.243,230.666 95.983 C 229.852 95.849,228.207 95.389,227.009 94.961 C 224.936 94.221,224.300 94.193,213.653 94.383 C 204.583 94.544,202.285 94.484,201.478 94.066 C 200.931 93.782,200.328 93.645,200.138 93.763 C 199.624 94.081,196.445 92.436,196.445 91.853 C 196.445 89.176,194.646 89.089,192.930 91.682 C 192.271 92.678,191.650 93.143,190.764 93.304 C 187.840 93.837,182.365 94.301,181.431 94.096 C 180.138 93.812,177.476 94.524,176.263 95.478 C 175.587 96.010,174.997 96.155,174.156 95.997 C 173.321 95.841,172.727 95.984,172.071 96.499 C 171.567 96.896,170.110 97.833,168.833 98.581 C 167.556 99.330,166.511 100.086,166.511 100.261 C 166.511 100.436,165.482 101.715,164.224 103.102 C 161.432 106.184,160.849 107.471,160.508 111.319 C 160.362 112.965,160.037 116.306,159.786 118.742 C 159.445 122.049,159.435 123.591,159.746 124.828 C 160.200 126.632,159.788 129.075,158.315 133.313 C 157.060 136.923,156.816 140.577,156.703 157.437 C 156.644 166.337,156.511 173.614,156.408 173.608 C 155.590 173.558,154.511 170.679,153.607 166.137 C 151.736 156.737,148.532 150.659,146.664 152.966 C 145.622 154.252,145.557 154.053,145.551 149.579 C 145.548 147.264,145.311 144.359,145.023 143.124 C 144.736 141.890,144.381 139.532,144.235 137.886 C 144.079 136.142,143.520 133.655,142.894 131.928 C 141.885 129.142,141.846 128.824,142.248 126.642 C 142.573 124.877,142.569 123.898,142.231 122.555 C 140.753 116.686,141.390 99.713,143.294 94.217 C 143.915 92.426,145.081 88.272,145.885 84.985 C 147.794 77.190,151.077 70.463,154.921 66.472 C 155.941 65.413,158.082 62.869,159.679 60.818 C 162.245 57.523,167.628 52.390,168.522 52.387 C 168.702 52.386,170.201 51.775,171.855 51.028 C 174.083 50.022,175.330 49.682,176.676 49.712 C 177.674 49.734,179.289 49.442,180.265 49.062 C 181.241 48.683,182.713 48.252,183.536 48.105 C 184.359 47.959,186.548 47.126,188.400 46.255 C 194.440 43.414,200.092 42.687,206.181 43.968 M210.179 67.503 C 210.757 68.275,210.884 68.314,211.085 67.783 C 211.398 66.957,211.148 66.604,210.250 66.604 C 209.528 66.604,209.526 66.630,210.179 67.503 M199.065 70.042 C 199.065 71.321,200.503 73.793,201.123 73.579 C 201.600 73.413,201.521 71.218,200.988 69.878 C 200.382 68.351,199.065 68.463,199.065 70.042 M225.039 137.817 C 226.327 138.759,224.094 139.723,220.580 139.741 C 217.773 139.756,217.579 139.705,217.469 138.932 C 217.270 137.529,223.409 136.625,225.039 137.817 M181.772 139.062 C 181.202 139.632,181.113 139.632,180.543 139.062 C 179.972 138.492,180.017 138.447,181.157 138.447 C 182.298 138.447,182.342 138.492,181.772 139.062 M209.882 147.039 C 207.660 149.574,208.119 151.961,211.105 153.404 C 212.788 154.217,213.185 153.708,212.281 151.896 C 211.853 151.037,211.743 150.064,211.881 148.345 C 212.118 145.397,211.611 145.066,209.882 147.039 M221.450 146.657 C 220.680 147.280,220.679 147.310,221.326 150.307 C 222.134 154.043,222.194 154.139,223.986 154.555 C 227.858 155.453,228.797 154.968,229.960 151.467 C 230.936 148.528,233.521 150.169,232.889 153.327 C 232.427 155.638,235.565 156.471,237.424 154.531 C 238.916 152.974,237.880 148.877,235.716 147.769 C 233.474 146.622,222.545 145.770,221.450 146.657 M179.607 146.681 C 176.802 146.908,174.755 147.464,172.860 148.512 C 172.544 148.686,171.732 148.951,171.055 149.099 C 168.503 149.660,167.526 153.500,169.553 155.007 C 170.974 156.064,172.002 155.615,172.308 153.804 C 172.478 152.796,173.023 151.888,174.096 150.826 C 176.011 148.930,176.112 148.932,176.638 150.887 C 176.873 151.760,177.398 153.125,177.804 153.921 L 178.541 155.367 181.177 155.218 C 184.297 155.041,185.047 154.403,185.406 151.621 C 185.530 150.652,185.792 149.567,185.987 149.210 C 186.758 147.799,185.163 146.130,183.267 146.364 C 183.004 146.397,181.356 146.539,179.607 146.681 M228.781 148.403 C 229.591 148.714,229.524 149.735,228.574 151.556 C 227.577 153.471,227.226 153.098,227.421 150.327 C 227.573 148.162,227.697 147.987,228.781 148.403 M178.859 148.902 C 178.859 149.529,178.195 149.685,177.974 149.109 C 177.844 148.770,177.975 148.550,178.309 148.550 C 178.611 148.550,178.859 148.708,178.859 148.902 M184.237 150.021 C 184.532 151.869,183.946 153.580,183.126 153.265 C 182.803 153.142,182.489 153.040,182.427 153.040 C 182.365 153.040,182.549 152.359,182.835 151.526 C 183.214 150.429,183.249 149.811,182.966 149.281 C 182.641 148.675,182.696 148.550,183.288 148.550 C 183.829 148.550,184.058 148.906,184.237 150.021 M225.839 149.363 C 226.256 150.678,224.114 151.882,223.625 150.608 C 223.215 149.540,223.794 148.854,225.326 148.593 C 225.466 148.570,225.697 148.916,225.839 149.363 M181.590 149.909 C 182.016 150.335,181.094 151.543,180.342 151.543 C 179.625 151.543,179.304 150.474,179.857 149.922 C 180.173 149.606,181.278 149.598,181.590 149.909 M214.259 151.761 C 213.905 152.683,213.987 153.040,214.553 153.040 C 215.043 153.040,215.529 152.281,215.529 151.513 C 215.529 150.932,214.500 151.133,214.259 151.761 M213.351 158.372 C 213.433 158.953,213.761 159.247,214.406 159.319 C 215.265 159.415,215.288 159.381,214.687 158.903 C 214.326 158.617,214.032 158.191,214.032 157.957 C 214.032 157.722,213.852 157.530,213.632 157.530 C 213.411 157.530,213.285 157.909,213.351 158.372 M269.270 172.919 C 268.913 174.705,268.992 176.988,269.411 176.988 C 269.624 176.988,269.785 175.865,269.785 174.369 C 269.785 171.521,269.635 171.098,269.270 172.919 M207.928 179.014 C 206.199 180.616,206.083 183.268,207.762 182.783 C 209.717 182.218,212.068 179.758,211.663 178.701 C 211.303 177.763,209.076 177.950,207.928 179.014 M193.458 178.952 C 193.468 179.812,195.550 181.478,196.614 181.478 C 197.162 181.478,196.720 180.018,195.953 179.298 C 195.013 178.415,193.448 178.198,193.458 178.952 M249.591 190.271 C 248.394 193.267,248.036 194.816,248.036 196.987 C 248.036 198.286,247.818 200.284,247.553 201.426 C 247.287 202.568,247.183 203.684,247.321 203.907 C 247.594 204.350,249.205 201.405,249.205 200.462 C 249.205 200.144,250.047 199.278,251.076 198.539 C 253.155 197.045,253.206 196.910,252.333 195.221 C 251.995 194.568,251.341 192.934,250.879 191.591 L 250.039 189.149 249.591 190.271 M160.970 190.788 C 160.292 191.207,159.673 195.527,159.927 198.067 C 160.047 199.267,159.960 200.982,159.735 201.877 C 159.379 203.292,159.425 203.691,160.094 204.933 C 160.517 205.718,161.302 207.790,161.838 209.536 C 162.374 211.282,163.034 212.966,163.305 213.278 C 164.862 215.071,165.008 219.718,163.540 220.761 C 160.989 222.575,161.151 222.183,160.805 227.358 C 160.372 233.823,159.558 236.279,156.602 240.037 C 155.955 240.861,154.600 242.881,153.592 244.528 C 150.037 250.333,148.052 251.821,143.930 251.772 C 142.684 251.757,140.381 252.230,137.677 253.056 C 133.468 254.342,132.068 254.729,127.970 255.739 C 123.888 256.746,118.032 259.002,110.850 262.337 C 109.563 262.935,108.326 263.424,108.100 263.424 C 107.875 263.424,107.160 263.662,106.511 263.953 C 105.031 264.618,100.634 265.815,96.726 266.616 C 92.754 267.431,87.651 268.958,87.367 269.417 C 87.242 269.619,86.876 269.785,86.553 269.785 C 86.231 269.785,84.767 270.360,83.301 271.063 C 81.835 271.765,79.121 272.972,77.268 273.745 C 72.399 275.776,71.761 277.088,74.466 279.514 C 74.581 279.616,75.311 280.671,76.088 281.856 C 77.312 283.723,81.319 288.968,82.487 290.230 C 82.704 290.464,83.218 291.121,83.630 291.690 C 88.880 298.940,104.153 313.420,112.621 319.177 C 113.075 319.486,113.978 320.132,114.628 320.612 C 115.278 321.093,116.988 322.247,118.428 323.176 C 119.869 324.105,121.504 325.185,122.062 325.576 C 122.619 325.967,123.195 326.286,123.342 326.286 C 123.488 326.286,123.874 326.522,124.199 326.810 C 125.745 328.181,136.932 333.774,144.808 337.114 C 146.352 337.768,147.951 338.452,148.363 338.633 C 148.775 338.813,149.532 339.068,150.047 339.198 C 150.561 339.328,151.487 339.658,152.105 339.932 C 152.722 340.206,154.490 340.792,156.034 341.233 C 157.577 341.674,159.419 342.218,160.127 342.442 C 160.834 342.666,162.350 343.064,163.494 343.326 C 164.639 343.587,166.586 344.083,167.820 344.427 C 184.140 348.974,219.438 349.295,234.612 345.035 C 235.332 344.833,237.605 344.303,239.663 343.858 C 241.721 343.412,243.935 342.823,244.583 342.549 C 245.232 342.274,246.410 341.933,247.203 341.790 C 247.995 341.647,248.812 341.403,249.018 341.248 C 249.224 341.093,250.150 340.791,251.076 340.577 C 252.942 340.145,255.504 339.263,257.306 338.430 C 257.955 338.131,258.657 337.886,258.866 337.886 C 259.076 337.886,259.724 337.639,260.306 337.338 C 260.889 337.036,262.713 336.176,264.359 335.427 C 267.312 334.083,275.803 329.914,276.894 329.272 C 277.203 329.091,279.139 327.977,281.197 326.798 C 284.678 324.803,286.505 323.647,287.620 322.732 C 287.871 322.526,289.268 321.515,290.725 320.486 C 303.926 311.162,317.160 298.289,325.476 286.681 C 326.162 285.723,327.370 284.097,328.161 283.068 C 334.472 274.852,334.488 274.895,324.041 272.008 C 322.498 271.582,320.645 271.003,319.925 270.723 C 319.205 270.443,318.110 270.107,317.493 269.977 C 316.240 269.714,311.229 267.888,303.087 264.727 C 300.103 263.569,297.123 262.459,296.464 262.262 C 295.806 262.064,294.796 261.656,294.219 261.356 C 293.643 261.055,292.886 260.808,292.538 260.807 C 292.189 260.806,291.347 260.482,290.667 260.088 C 289.986 259.694,287.661 258.836,285.500 258.182 C 280.437 256.649,277.525 255.616,275.841 254.757 C 275.098 254.379,274.271 254.069,274.003 254.069 C 273.182 254.069,266.638 250.873,266.090 250.205 C 265.808 249.860,264.047 248.695,262.178 247.617 C 260.309 246.538,258.267 245.069,257.641 244.351 C 257.014 243.634,254.902 241.433,252.947 239.459 C 250.992 237.485,249.139 235.561,248.831 235.184 C 248.360 234.609,248.239 232.115,248.082 219.805 C 247.979 211.724,247.770 204.988,247.617 204.835 C 246.879 204.099,244.669 207.391,243.202 211.413 C 242.714 212.750,242.013 214.171,241.644 214.570 C 241.275 214.969,240.973 215.420,240.973 215.573 C 240.973 215.726,240.607 215.904,240.159 215.970 C 239.613 216.051,238.971 216.780,238.205 218.191 C 237.246 219.959,236.694 220.492,234.738 221.548 C 233.458 222.239,232.253 223.150,232.060 223.574 C 231.839 224.059,230.946 224.584,229.644 224.995 C 228.328 225.409,227.032 226.175,226.077 227.102 C 225.251 227.904,223.663 229.143,222.546 229.857 C 221.430 230.571,220.141 231.633,219.682 232.217 C 216.452 236.324,201.971 238.426,193.078 236.080 C 187.215 234.534,187.475 234.678,183.910 231.017 C 178.478 225.438,177.046 223.664,176.463 221.788 C 176.349 221.423,175.958 221.019,175.593 220.891 C 174.786 220.608,173.791 219.467,173.039 217.961 C 172.037 215.956,171.482 215.114,170.368 213.908 C 168.850 212.264,167.466 210.006,166.890 208.232 C 166.623 207.409,166.176 206.403,165.896 205.997 C 165.617 205.591,165.383 204.749,165.376 204.126 C 165.370 203.503,165.129 202.683,164.842 202.304 C 164.555 201.925,164.204 200.915,164.061 200.059 C 163.919 199.203,163.582 198.072,163.313 197.545 C 163.043 197.018,162.576 195.282,162.275 193.688 C 161.666 190.460,161.630 190.380,160.970 190.788 M219.270 198.031 C 216.636 199.046,215.989 199.443,215.802 200.156 C 215.690 200.585,215.747 200.935,215.928 200.935 C 216.109 200.935,216.519 201.441,216.838 202.058 C 217.800 203.919,222.638 202.397,222.638 200.234 C 222.638 198.529,220.911 197.399,219.270 198.031 M184.565 199.109 C 183.377 200.327,184.130 201.323,186.781 202.040 C 188.695 202.558,189.149 202.438,189.436 201.341 C 189.857 199.733,185.779 197.864,184.565 199.109 M166.926 224.034 C 167.075 225.221,167.219 229.392,167.247 233.302 C 167.307 241.717,167.711 246.842,168.738 252.198 C 169.153 254.359,169.503 257.222,169.517 258.559 C 169.553 262.022,170.718 270.268,171.790 274.649 C 172.017 275.575,172.589 278.276,173.061 280.650 C 173.943 285.077,175.256 288.081,177.910 291.745 C 178.535 292.607,179.770 294.494,180.656 295.938 C 182.173 298.412,182.321 298.542,183.217 298.202 C 184.081 297.873,184.416 298.081,186.874 300.463 C 188.362 301.906,189.700 303.087,189.848 303.087 C 189.996 303.087,190.573 303.519,191.130 304.048 C 191.686 304.576,193.002 305.587,194.052 306.293 C 197.008 308.281,197.869 309.231,198.147 310.811 C 198.286 311.605,198.608 312.591,198.862 313.003 C 199.116 313.414,199.708 314.930,200.178 316.370 C 200.648 317.811,201.263 319.256,201.545 319.580 C 201.827 319.905,202.060 320.579,202.063 321.077 C 202.068 321.982,204.735 327.169,205.409 327.586 C 207.614 328.949,210.836 322.724,208.985 320.678 C 208.679 320.340,208.316 319.504,208.180 318.821 C 207.851 317.181,208.641 317.400,209.885 319.295 C 211.283 321.426,212.996 320.499,216.093 315.936 C 216.909 314.734,217.778 313.623,218.025 313.465 C 218.272 313.308,219.100 312.129,219.865 310.846 C 220.630 309.563,221.634 308.092,222.098 307.577 C 222.561 307.063,223.251 306.028,223.631 305.277 C 226.336 299.937,227.693 298.263,234.505 291.862 C 237.914 288.659,239.016 288.034,238.798 289.429 C 237.936 294.932,238.434 298.415,240.143 298.844 C 241.812 299.263,242.113 298.305,241.855 293.389 C 241.636 289.232,241.666 288.979,242.598 287.184 C 244.692 283.148,245.145 282.042,245.475 280.159 C 245.663 279.084,246.117 276.688,246.482 274.836 C 247.021 272.109,247.161 269.228,247.224 259.682 C 247.380 235.612,247.476 235.351,253.660 242.189 C 255.754 244.504,258.287 246.904,259.289 247.521 C 260.292 248.138,262.347 249.470,263.858 250.480 C 266.556 252.284,268.109 253.014,274.088 255.288 C 277.834 256.712,286.003 259.602,287.746 260.119 C 288.466 260.333,289.224 260.640,289.429 260.802 C 289.635 260.963,291.235 261.564,292.984 262.137 C 294.733 262.710,297.175 263.629,298.410 264.179 C 299.645 264.729,302.423 265.821,304.584 266.605 C 306.745 267.389,308.683 268.160,308.891 268.318 C 309.780 268.994,315.950 271.013,323.293 273.030 C 324.425 273.341,325.519 273.733,325.725 273.902 C 325.931 274.070,326.757 274.331,327.561 274.481 C 328.365 274.632,329.460 274.982,329.993 275.261 C 330.527 275.539,331.174 275.768,331.431 275.769 C 332.040 275.772,332.041 275.770,331.057 277.562 C 329.708 280.019,323.425 288.609,322.514 289.242 C 322.366 289.345,321.505 290.382,320.602 291.545 C 315.625 297.957,304.507 309.253,300.337 312.136 C 299.045 313.029,298.710 313.310,296.626 315.247 C 295.850 315.968,295.076 316.558,294.906 316.558 C 294.736 316.558,294.292 316.894,293.920 317.306 C 293.547 317.717,293.011 318.054,292.727 318.054 C 292.444 318.054,292.115 318.307,291.997 318.616 C 291.878 318.924,291.622 319.177,291.427 319.177 C 291.233 319.177,289.927 320.103,288.526 321.235 C 287.125 322.367,285.799 323.293,285.579 323.293 C 285.360 323.293,284.950 323.503,284.669 323.761 C 283.996 324.378,282.948 325.050,281.572 325.748 C 280.954 326.061,279.775 326.711,278.952 327.193 C 278.129 327.675,275.940 328.855,274.088 329.816 C 272.236 330.777,270.468 331.703,270.159 331.875 C 268.833 332.612,263.914 334.858,263.143 335.077 C 262.680 335.209,262.301 335.474,262.301 335.666 C 262.301 335.858,262.084 336.015,261.819 336.015 C 261.554 336.015,260.676 336.352,259.869 336.763 C 259.062 337.175,258.168 337.512,257.883 337.512 C 257.598 337.512,256.918 337.751,256.372 338.043 C 255.025 338.764,251.985 339.751,250.028 340.103 C 249.144 340.262,248.226 340.586,247.989 340.823 C 247.752 341.060,247.213 341.261,246.791 341.270 C 246.370 341.279,245.351 341.547,244.528 341.865 C 243.704 342.183,242.036 342.597,240.821 342.786 C 239.605 342.975,238.427 343.275,238.201 343.453 C 237.976 343.630,236.700 343.894,235.364 344.040 C 234.028 344.185,232.726 344.478,232.470 344.691 C 232.214 344.904,230.528 345.155,228.724 345.249 C 226.920 345.343,224.855 345.649,224.135 345.930 C 223.326 346.244,220.319 346.537,216.277 346.695 C 212.675 346.835,209.055 347.015,208.232 347.093 C 202.732 347.619,200.003 347.661,197.182 347.266 C 195.439 347.022,191.319 346.726,188.026 346.607 C 184.102 346.466,181.691 346.216,181.029 345.881 C 180.423 345.574,178.808 345.370,176.997 345.370 C 173.965 345.370,168.861 344.316,166.810 343.267 C 166.254 342.983,165.193 342.750,164.453 342.750 C 163.712 342.750,162.651 342.521,162.096 342.241 C 161.540 341.961,160.352 341.619,159.456 341.482 C 158.559 341.345,157.347 340.984,156.761 340.682 C 156.176 340.379,155.351 340.131,154.928 340.131 C 154.506 340.131,153.532 339.794,152.764 339.383 C 151.996 338.971,151.007 338.634,150.566 338.634 C 150.125 338.634,149.555 338.382,149.298 338.073 C 149.042 337.764,148.516 337.512,148.129 337.512 C 147.742 337.512,146.796 337.175,146.029 336.763 C 145.261 336.352,144.335 336.015,143.972 336.015 C 143.609 336.015,143.312 335.850,143.312 335.648 C 143.312 335.446,142.848 335.171,142.283 335.036 C 141.717 334.901,140.833 334.575,140.318 334.312 C 139.118 333.697,130.955 329.809,130.215 329.499 C 129.906 329.370,128.980 328.856,128.157 328.356 C 127.334 327.856,126.298 327.281,125.855 327.077 C 125.412 326.873,124.932 326.517,124.790 326.286 C 124.647 326.055,124.167 325.708,123.724 325.516 C 122.834 325.129,122.303 324.801,119.667 323.012 C 118.681 322.343,117.775 321.796,117.653 321.796 C 117.532 321.796,116.713 321.207,115.834 320.486 C 114.955 319.766,114.042 319.177,113.806 319.177 C 113.570 319.177,113.377 319.025,113.377 318.839 C 113.377 318.653,112.444 317.882,111.304 317.125 C 108.754 315.433,103.569 311.325,103.162 310.674 C 102.997 310.412,102.695 310.196,102.489 310.196 C 102.284 310.196,99.051 307.108,95.305 303.333 C 88.301 296.276,87.931 295.874,84.047 291.117 C 82.788 289.576,81.506 288.046,81.197 287.718 C 80.889 287.389,80.384 286.728,80.075 286.249 C 79.766 285.769,79.219 285.068,78.859 284.690 C 78.499 284.313,78.204 283.892,78.204 283.754 C 78.204 283.617,77.940 283.239,77.618 282.913 C 74.317 279.571,73.487 276.276,75.772 275.583 C 76.595 275.334,78.700 274.425,80.449 273.564 C 85.495 271.081,90.754 269.193,95.603 268.123 C 101.218 266.885,106.589 265.367,107.602 264.731 C 108.027 264.464,108.953 264.072,109.660 263.860 C 110.366 263.648,112.797 262.695,115.061 261.741 C 122.768 258.494,125.785 257.438,131.089 256.132 C 134.004 255.414,137.399 254.499,138.634 254.099 C 140.968 253.344,142.964 252.870,144.247 252.767 C 147.763 252.483,148.987 252.079,150.337 250.759 C 151.817 249.313,153.414 247.197,153.414 246.683 C 153.414 246.515,153.977 245.792,154.665 245.078 C 156.090 243.599,158.913 239.630,160.275 237.189 C 161.576 234.860,161.927 233.171,162.165 228.115 C 162.380 223.520,162.633 222.763,164.012 222.567 C 164.460 222.503,164.992 222.075,165.194 221.615 C 165.772 220.298,166.605 221.461,166.926 224.034 M178.027 231.431 C 179.273 232.769,180.518 233.863,180.793 233.863 C 181.069 233.863,182.371 234.955,183.687 236.288 C 185.004 237.622,186.434 238.814,186.866 238.937 C 187.298 239.060,188.183 239.768,188.833 240.510 L 190.014 241.860 193.949 241.762 C 196.381 241.702,198.191 241.828,198.687 242.094 C 199.128 242.330,201.119 242.650,203.112 242.805 C 205.105 242.960,207.072 243.268,207.484 243.490 C 207.895 243.711,208.821 243.898,209.542 243.905 C 210.262 243.912,211.498 244.256,212.289 244.668 C 213.374 245.234,213.952 245.332,214.643 245.070 C 215.146 244.878,217.109 244.762,219.005 244.812 L 222.451 244.902 224.790 243.279 C 226.076 242.386,227.128 241.519,227.128 241.353 C 227.128 241.187,228.312 239.856,229.758 238.395 C 232.458 235.668,233.773 234.821,237.430 233.453 L 239.535 232.665 240.414 233.491 C 241.291 234.315,241.302 234.719,240.498 236.397 C 240.198 237.021,240.218 237.887,240.572 239.671 C 240.989 241.770,240.975 242.293,240.466 243.565 C 240.143 244.373,239.695 246.511,239.470 248.315 C 239.246 250.119,238.892 252.392,238.683 253.365 C 238.218 255.535,238.461 261.103,239.070 262.242 C 239.316 262.702,239.412 263.412,239.282 263.820 C 238.815 265.292,239.461 266.775,240.817 267.342 C 241.520 267.635,242.120 268.011,242.150 268.175 C 242.179 268.340,242.243 269.933,242.291 271.714 C 242.352 273.982,242.560 275.213,242.985 275.820 C 244.453 277.915,243.337 282.983,241.013 284.776 C 240.364 285.278,239.112 286.277,238.232 286.997 C 237.352 287.717,235.307 289.317,233.688 290.552 C 229.352 293.858,224.509 299.070,224.509 300.428 C 224.509 300.629,223.530 302.277,222.333 304.091 C 221.136 305.906,219.582 308.316,218.880 309.448 C 218.177 310.580,217.405 311.712,217.163 311.964 C 216.922 312.216,216.335 313.058,215.858 313.835 C 213.686 317.378,211.821 318.698,210.952 317.306 C 210.694 316.894,210.272 316.558,210.013 316.558 C 209.754 316.558,209.542 316.305,209.542 315.996 C 209.542 315.688,209.400 315.435,209.228 315.435 C 208.875 315.435,206.431 313.445,205.207 312.161 C 204.766 311.698,204.279 311.319,204.127 311.319 C 203.974 311.319,202.448 310.225,200.735 308.887 C 199.021 307.549,197.514 306.455,197.384 306.455 C 197.255 306.455,196.359 305.856,195.394 305.124 C 186.298 298.225,182.678 293.764,184.068 291.168 C 184.590 290.192,184.132 289.008,182.919 288.201 C 178.138 285.018,178.082 284.916,178.344 279.793 C 178.521 276.330,178.449 275.613,177.774 274.087 C 177.350 273.127,176.895 271.219,176.764 269.847 C 176.633 268.475,176.210 266.619,175.824 265.722 C 175.439 264.825,175.222 263.930,175.344 263.734 C 175.465 263.537,175.276 263.058,174.923 262.668 C 174.570 262.278,173.956 260.816,173.557 259.417 C 173.159 258.019,172.663 256.286,172.456 255.566 C 172.249 254.846,171.780 252.824,171.414 251.072 C 171.049 249.321,170.511 247.469,170.220 246.956 C 169.460 245.616,169.501 234.467,170.272 233.064 C 170.984 231.767,174.356 229.181,175.533 229.029 C 175.658 229.012,176.781 230.094,178.027 231.431 M241.280 297.564 C 240.832 298.450,239.606 297.698,239.355 296.383 C 239.061 294.846,239.543 291.326,240.093 291.001 C 240.371 290.836,240.621 290.416,240.648 290.066 C 240.674 289.716,240.902 291.113,241.153 293.171 C 241.424 295.400,241.476 297.176,241.280 297.564 M203.289 313.283 C 206.712 317.532,208.873 323.006,207.918 325.009 C 207.065 326.797,205.991 326.178,204.798 323.210 C 204.343 322.078,203.448 320.265,202.808 319.180 C 202.169 318.095,201.546 316.683,201.424 316.041 C 201.302 315.399,200.974 314.419,200.695 313.863 C 199.355 311.197,201.264 310.770,203.289 313.283 M210.160 332.426 C 209.561 333.339,209.856 333.770,211.081 333.770 C 211.654 333.770,212.128 332.126,211.646 331.811 C 210.988 331.381,210.791 331.462,210.160 332.426 " stroke="none" fill="#a08062" fill-rule="evenodd"></path><path id="path3" d="M189.386 95.591 C 188.694 95.907,187.160 96.165,185.977 96.165 C 184.147 96.165,183.614 96.333,182.403 97.296 C 181.620 97.918,180.545 98.522,180.013 98.639 C 179.481 98.756,178.485 99.022,177.799 99.231 C 177.113 99.440,175.927 99.635,175.164 99.665 C 172.940 99.752,168.884 102.769,166.094 106.412 C 163.180 110.218,162.487 113.650,163.695 118.305 C 164.522 121.495,164.281 126.207,163.142 129.096 C 161.535 133.173,163.229 136.387,166.246 134.986 C 166.800 134.729,167.255 134.382,167.256 134.217 C 167.272 132.547,172.708 132.328,174.165 133.939 C 174.558 134.373,175.536 134.761,176.563 134.891 C 177.517 135.011,179.645 135.351,181.291 135.646 C 182.937 135.942,185.072 136.280,186.034 136.399 C 186.997 136.517,188.344 136.990,189.028 137.450 C 193.353 140.357,186.665 143.010,179.420 141.261 C 172.442 139.576,167.340 140.637,164.111 144.444 C 161.591 147.415,161.526 147.446,160.909 145.958 C 160.212 144.275,159.042 143.315,158.980 144.376 C 158.199 157.840,158.681 174.135,159.931 176.553 C 161.231 179.067,162.252 189.479,161.258 190.093 C 160.327 190.668,159.996 189.708,159.643 185.407 C 159.500 183.665,158.059 180.410,155.348 175.700 C 154.288 173.860,153.327 171.755,153.211 171.023 C 152.140 164.257,150.202 158.188,149.039 157.958 C 148.667 157.884,148.165 157.664,147.923 157.468 C 147.228 156.904,146.263 160.517,146.906 161.278 C 147.865 162.414,148.373 174.160,147.569 176.603 C 147.153 177.865,146.688 175.952,146.617 172.685 C 146.570 170.508,146.493 169.979,146.400 171.188 C 145.997 176.412,147.253 187.913,147.977 185.632 C 148.264 184.727,149.489 184.576,149.807 185.405 C 149.928 185.719,150.395 185.924,150.876 185.872 C 151.909 185.762,152.157 188.880,151.233 190.365 C 150.945 190.828,150.833 191.207,150.985 191.207 C 151.137 191.207,151.095 191.417,150.893 191.674 C 150.410 192.289,151.349 194.574,152.085 194.574 C 152.381 194.574,152.890 194.953,153.217 195.416 C 153.716 196.125,153.864 196.170,154.157 195.702 C 154.440 195.247,154.503 195.282,154.500 195.889 C 154.487 198.394,155.941 201.545,156.942 201.182 C 157.482 200.986,158.653 201.614,158.653 202.099 C 158.653 202.693,161.701 210.360,161.870 210.191 C 162.098 209.963,160.932 206.534,160.083 204.933 C 159.426 203.695,159.380 203.287,159.735 201.877 C 159.960 200.982,160.047 199.267,159.927 198.067 C 159.576 194.557,160.656 189.717,161.583 190.644 C 161.663 190.724,161.974 192.094,162.275 193.688 C 162.576 195.282,163.043 197.018,163.313 197.545 C 163.582 198.072,163.919 199.203,164.061 200.059 C 164.204 200.915,164.555 201.925,164.842 202.304 C 165.129 202.683,165.370 203.503,165.376 204.126 C 165.383 204.749,165.617 205.591,165.896 205.997 C 166.176 206.403,166.623 207.409,166.890 208.232 C 167.466 210.006,168.850 212.264,170.368 213.908 C 171.482 215.114,172.037 215.956,173.039 217.961 C 173.791 219.467,174.786 220.608,175.593 220.891 C 175.958 221.019,176.349 221.423,176.463 221.788 C 177.046 223.664,178.478 225.438,183.910 231.017 C 187.475 234.678,187.215 234.534,193.078 236.080 C 201.971 238.426,216.452 236.324,219.682 232.217 C 220.141 231.633,221.430 230.571,222.546 229.857 C 223.663 229.143,225.251 227.904,226.077 227.102 C 227.032 226.175,228.328 225.409,229.644 224.995 C 230.946 224.584,231.839 224.059,232.060 223.574 C 232.253 223.150,233.458 222.239,234.738 221.548 C 236.694 220.492,237.246 219.959,238.205 218.191 C 238.971 216.780,239.613 216.051,240.159 215.970 C 240.607 215.904,240.973 215.726,240.973 215.573 C 240.973 215.420,241.275 214.969,241.644 214.570 C 242.013 214.171,242.714 212.750,243.202 211.413 C 244.669 207.391,246.879 204.099,247.617 204.835 C 247.770 204.988,247.979 211.742,248.082 219.844 C 248.232 231.603,248.372 234.674,248.779 235.061 C 249.203 235.465,249.251 235.421,249.066 234.799 C 248.374 232.477,248.675 202.986,249.406 201.504 C 250.939 198.395,257.057 194.966,261.091 194.954 C 263.803 194.946,267.540 191.101,267.540 188.319 C 267.540 187.488,268.721 183.108,269.540 180.903 C 270.600 178.046,270.572 158.848,269.504 157.041 C 269.041 156.258,268.662 155.319,268.662 154.955 C 268.662 154.438,268.426 154.327,267.584 154.451 C 266.991 154.538,266.392 154.424,266.252 154.199 C 266.113 153.973,265.504 153.789,264.898 153.789 C 263.303 153.789,263.332 155.400,264.943 156.233 C 267.061 157.327,266.387 158.873,263.860 158.717 C 261.391 158.564,260.647 159.141,259.886 161.797 C 258.645 166.134,258.338 168.174,258.689 169.773 C 259.000 171.194,258.902 171.621,257.697 174.076 C 256.962 175.575,256.242 177.306,256.098 177.923 C 255.624 179.950,254.897 180.945,253.351 181.684 C 252.512 182.085,251.730 182.708,251.613 183.068 C 251.059 184.767,250.323 183.352,250.382 180.702 C 250.403 179.761,250.312 178.652,250.181 178.239 C 250.050 177.825,250.155 176.827,250.416 176.021 C 251.516 172.611,250.657 153.955,249.253 150.765 C 248.333 148.677,246.800 147.057,245.729 147.041 C 244.671 147.026,243.772 146.339,243.440 145.291 C 242.127 141.156,234.070 139.464,224.135 141.236 C 222.180 141.584,219.317 142.042,217.774 142.254 C 216.230 142.465,214.715 142.790,214.406 142.977 C 214.097 143.164,213.592 143.429,213.283 143.567 C 212.975 143.705,212.598 143.999,212.447 144.220 C 212.296 144.440,212.170 143.770,212.167 142.730 C 212.159 140.076,213.651 137.132,215.271 136.606 C 217.354 135.930,221.885 135.080,223.405 135.080 C 225.032 135.080,230.433 133.604,232.180 132.683 C 233.870 131.791,234.837 131.953,236.433 133.396 C 238.224 135.013,240.486 135.304,240.066 133.863 C 239.343 131.382,239.363 130.552,240.157 129.996 C 241.275 129.213,241.623 127.025,240.779 126.091 C 240.239 125.495,240.206 125.262,240.596 124.793 C 240.915 124.408,240.987 123.703,240.815 122.634 C 240.675 121.762,240.416 119.701,240.240 118.054 C 240.063 116.408,239.652 114.556,239.326 113.938 C 238.999 113.321,238.731 112.533,238.730 112.186 C 238.720 109.457,229.997 99.592,227.094 99.027 C 225.759 98.768,222.996 98.018,219.832 97.057 C 218.370 96.613,216.814 96.535,212.722 96.700 C 209.841 96.816,206.473 96.950,205.239 96.996 C 203.189 97.074,201.143 96.713,198.129 95.743 C 195.998 95.057,190.760 94.966,189.386 95.591 M196.015 124.322 C 196.272 124.579,196.601 124.808,196.745 124.831 C 198.353 125.084,199.439 125.539,199.439 125.959 C 199.439 126.555,199.197 126.529,204.367 126.475 C 207.484 126.443,208.428 126.552,208.670 126.973 C 208.841 127.270,209.315 127.575,209.724 127.652 C 210.773 127.849,210.848 128.852,209.952 130.701 C 209.529 131.575,209.076 132.823,208.946 133.472 C 208.493 135.738,206.785 136.633,204.027 136.050 C 203.566 135.952,202.947 136.114,202.652 136.410 C 201.334 137.728,198.073 137.998,196.541 136.915 C 196.079 136.589,195.774 136.250,195.862 136.162 C 195.950 136.073,195.402 135.979,194.644 135.952 C 193.478 135.910,190.464 134.617,189.149 133.594 C 188.943 133.434,187.933 133.190,186.904 133.052 C 184.613 132.745,182.985 132.137,182.944 131.573 C 182.926 131.341,182.867 130.730,182.811 130.215 C 182.593 128.211,184.802 126.852,188.285 126.845 C 188.966 126.844,190.018 126.517,190.622 126.118 C 191.227 125.719,191.853 125.475,192.014 125.574 C 192.175 125.674,192.415 125.328,192.546 124.805 C 192.814 123.735,195.109 123.416,196.015 124.322 M227.649 143.067 C 228.551 143.401,228.269 143.676,226.650 144.041 C 225.794 144.234,225.066 144.167,224.469 143.840 L 223.573 143.349 224.797 143.095 C 225.470 142.955,226.123 142.676,226.247 142.475 C 226.385 142.253,226.565 142.246,226.707 142.457 C 226.836 142.648,227.260 142.923,227.649 143.067 M211.881 148.345 C 211.743 150.064,211.853 151.037,212.281 151.896 C 213.185 153.708,212.788 154.217,211.105 153.404 C 208.119 151.961,207.660 149.574,209.882 147.039 C 211.611 145.066,212.118 145.397,211.881 148.345 M231.431 146.905 C 236.529 147.704,237.129 148.133,238.043 151.631 C 238.493 153.355,238.477 153.432,237.424 154.531 C 235.565 156.471,232.427 155.638,232.889 153.327 C 233.521 150.169,230.936 148.528,229.960 151.467 C 228.799 154.962,227.856 155.453,224.012 154.561 C 222.237 154.149,222.311 154.229,221.681 152.043 L 221.160 150.234 221.365 151.790 C 221.541 153.125,221.461 153.381,220.808 153.588 C 219.151 154.114,217.472 152.426,218.113 150.879 C 218.770 149.294,220.007 148.646,220.682 149.535 C 221.158 150.162,221.187 150.075,220.964 148.683 C 220.512 145.869,222.584 145.517,231.431 146.905 M185.045 146.847 C 186.365 147.399,186.623 148.046,185.987 149.210 C 185.792 149.567,185.530 150.652,185.406 151.621 C 185.047 154.403,184.297 155.041,181.177 155.218 L 178.541 155.367 177.804 153.921 C 177.398 153.125,176.873 151.760,176.638 150.887 C 176.112 148.932,176.011 148.930,174.096 150.826 C 173.023 151.888,172.478 152.796,172.308 153.804 C 172.002 155.615,170.974 156.064,169.553 155.007 C 167.526 153.500,168.503 149.660,171.055 149.099 C 171.732 148.951,172.544 148.686,172.860 148.512 C 174.755 147.464,176.802 146.908,179.607 146.681 C 181.356 146.539,183.004 146.397,183.267 146.364 C 183.531 146.332,184.331 146.549,185.045 146.847 M224.322 148.924 C 223.668 149.205,223.709 149.249,224.646 149.272 C 225.554 149.294,225.686 149.422,225.509 150.101 C 225.363 150.658,225.418 150.784,225.690 150.513 C 226.088 150.114,225.790 148.529,225.326 148.576 C 225.185 148.591,224.733 148.747,224.322 148.924 M179.857 149.922 C 179.304 150.474,179.625 151.543,180.342 151.543 C 181.094 151.543,182.016 150.335,181.590 149.909 C 181.278 149.598,180.173 149.606,179.857 149.922 M188.152 151.918 C 188.287 152.823,187.696 153.399,186.623 153.409 C 185.933 153.415,185.779 152.476,186.208 150.874 C 186.501 149.780,187.950 150.558,188.152 151.918 M176.530 152.385 C 177.041 154.820,176.492 155.168,174.482 153.685 C 173.271 152.792,173.543 151.694,175.130 151.070 C 176.102 150.688,176.190 150.770,176.530 152.385 M215.529 151.513 C 215.529 152.281,215.043 153.040,214.553 153.040 C 213.987 153.040,213.905 152.683,214.259 151.761 C 214.500 151.133,215.529 150.932,215.529 151.513 M184.471 156.365 C 184.471 157.392,180.656 158.553,179.542 157.865 C 178.733 157.364,179.930 156.458,181.601 156.306 C 182.459 156.228,183.457 156.135,183.817 156.099 C 184.177 156.063,184.471 156.183,184.471 156.365 M214.032 157.957 C 214.032 158.191,214.326 158.617,214.687 158.903 C 215.288 159.381,215.265 159.415,214.406 159.319 C 213.474 159.215,212.744 157.530,213.632 157.530 C 213.852 157.530,214.032 157.722,214.032 157.957 M145.061 159.401 C 145.231 159.710,145.469 161.141,145.590 162.582 L 145.810 165.201 145.870 162.747 C 145.913 160.999,145.761 160.084,145.342 159.566 C 145.018 159.167,144.892 159.093,145.061 159.401 M150.027 172.631 C 149.667 172.963,149.617 172.905,149.805 172.374 C 149.938 171.997,150.066 171.491,150.090 171.251 C 150.114 171.011,150.214 171.126,150.312 171.508 C 150.411 171.890,150.282 172.396,150.027 172.631 M269.785 174.369 C 269.785 175.865,269.624 176.988,269.411 176.988 C 268.992 176.988,268.913 174.705,269.270 172.919 C 269.635 171.098,269.785 171.521,269.785 174.369 M202.065 173.437 C 203.975 174.425,204.710 178.553,202.876 177.992 C 201.514 177.576,198.209 176.257,197.998 176.046 C 197.617 175.665,198.852 173.843,199.824 173.350 C 200.965 172.773,200.767 172.765,202.065 173.437 M211.663 178.701 C 212.068 179.758,209.717 182.218,207.762 182.783 C 206.083 183.268,206.199 180.616,207.928 179.014 C 209.076 177.950,211.303 177.763,211.663 178.701 M195.953 179.298 C 196.720 180.018,197.162 181.478,196.614 181.478 C 196.182 181.478,194.000 180.232,193.738 179.836 C 192.782 178.391,194.535 177.966,195.953 179.298 M252.333 195.221 C 253.206 196.910,253.155 197.045,251.076 198.539 C 250.047 199.278,249.205 200.144,249.205 200.462 C 249.205 201.405,247.594 204.350,247.321 203.907 C 247.183 203.684,247.287 202.568,247.553 201.426 C 247.818 200.284,248.036 198.286,248.036 196.987 C 248.036 194.816,248.394 193.267,249.591 190.271 L 250.039 189.149 250.879 191.591 C 251.341 192.934,251.995 194.568,252.333 195.221 M156.408 195.300 C 156.667 195.347,155.538 196.058,155.192 196.065 C 155.037 196.069,154.911 195.833,154.911 195.543 C 154.911 195.242,155.192 195.069,155.566 195.140 C 155.926 195.209,156.305 195.281,156.408 195.300 M221.983 198.618 C 223.353 199.795,222.831 201.196,220.637 202.234 C 218.068 203.450,217.545 203.425,216.838 202.058 C 216.519 201.441,216.109 200.935,215.928 200.935 C 215.141 200.935,216.112 199.332,217.170 198.885 C 220.385 197.524,220.690 197.507,221.983 198.618 M188.770 199.808 C 190.496 201.430,189.337 202.731,186.781 202.040 C 184.709 201.480,184.097 201.064,184.097 200.216 C 184.097 198.496,187.095 198.235,188.770 199.808 M162.395 212.410 C 162.395 212.602,162.572 212.937,162.788 213.153 C 164.303 214.668,164.318 219.160,162.815 220.915 C 162.236 221.592,162.247 221.604,163.067 221.173 C 164.581 220.378,165.086 217.695,164.206 215.117 C 163.763 213.820,162.395 211.775,162.395 212.410 M174.770 229.269 C 173.643 229.714,170.789 232.121,170.272 233.064 C 169.501 234.467,169.460 245.616,170.220 246.956 C 170.511 247.469,171.049 249.321,171.414 251.072 C 171.780 252.824,172.249 254.846,172.456 255.566 C 172.663 256.286,173.159 258.019,173.557 259.417 C 173.956 260.816,174.570 262.278,174.923 262.668 C 175.276 263.058,175.465 263.537,175.344 263.734 C 175.222 263.930,175.439 264.825,175.824 265.722 C 176.210 266.619,176.633 268.475,176.764 269.847 C 176.895 271.219,177.350 273.127,177.774 274.087 C 178.449 275.613,178.521 276.330,178.344 279.793 C 178.082 284.916,178.138 285.018,182.919 288.201 C 184.132 289.008,184.590 290.192,184.068 291.168 C 182.678 293.764,186.298 298.225,195.394 305.124 C 196.359 305.856,197.255 306.455,197.384 306.455 C 197.514 306.455,199.021 307.549,200.735 308.887 C 202.448 310.225,203.974 311.319,204.127 311.319 C 204.279 311.319,204.766 311.698,205.207 312.161 C 206.431 313.445,208.875 315.435,209.228 315.435 C 209.400 315.435,209.542 315.688,209.542 315.996 C 209.542 316.305,209.754 316.558,210.013 316.558 C 210.272 316.558,210.694 316.894,210.952 317.306 C 211.821 318.698,213.686 317.378,215.858 313.835 C 216.335 313.058,216.922 312.216,217.163 311.964 C 217.405 311.712,218.177 310.580,218.880 309.448 C 219.582 308.316,221.136 305.906,222.333 304.091 C 223.530 302.277,224.509 300.629,224.509 300.428 C 224.509 299.070,229.352 293.858,233.688 290.552 C 235.307 289.317,237.352 287.717,238.232 286.997 C 239.112 286.277,240.364 285.278,241.013 284.776 C 243.337 282.983,244.453 277.915,242.985 275.820 C 242.560 275.213,242.352 273.982,242.291 271.714 C 242.243 269.933,242.179 268.340,242.150 268.175 C 242.120 268.011,241.520 267.635,240.817 267.342 C 239.461 266.775,238.815 265.292,239.282 263.820 C 239.412 263.412,239.316 262.702,239.070 262.242 C 238.461 261.103,238.218 255.535,238.683 253.365 C 238.892 252.392,239.246 250.119,239.470 248.315 C 239.695 246.511,240.143 244.373,240.466 243.565 C 240.975 242.293,240.989 241.770,240.572 239.671 C 240.218 237.887,240.198 237.021,240.498 236.397 C 241.302 234.719,241.291 234.315,240.414 233.491 L 239.535 232.665 237.430 233.453 C 233.773 234.821,232.458 235.668,229.758 238.395 C 228.312 239.856,227.128 241.187,227.128 241.353 C 227.128 241.519,226.076 242.386,224.790 243.279 L 222.451 244.902 219.005 244.812 C 217.109 244.762,215.146 244.878,214.643 245.070 C 213.952 245.332,213.374 245.234,212.289 244.668 C 211.498 244.256,210.262 243.912,209.542 243.905 C 208.821 243.898,207.895 243.711,207.484 243.490 C 207.072 243.268,205.105 242.960,203.112 242.805 C 201.119 242.650,199.128 242.330,198.687 242.094 C 198.191 241.828,196.381 241.702,193.949 241.762 L 190.014 241.860 188.833 240.510 C 188.183 239.768,187.298 239.060,186.866 238.937 C 186.434 238.814,185.004 237.622,183.687 236.288 C 182.371 234.955,181.069 233.863,180.793 233.863 C 180.518 233.863,179.273 232.769,178.027 231.431 C 176.781 230.094,175.658 229.012,175.533 229.029 C 175.407 229.045,175.063 229.153,174.770 229.269 M200.187 312.273 C 200.187 312.592,200.416 313.308,200.695 313.863 C 200.974 314.419,201.302 315.399,201.424 316.041 C 201.546 316.683,202.169 318.095,202.808 319.180 C 203.448 320.265,204.343 322.078,204.798 323.210 C 205.677 325.395,206.999 326.697,207.506 325.876 C 207.677 325.599,207.630 325.519,207.383 325.672 C 207.034 325.887,205.426 324.122,205.426 323.524 C 205.426 323.407,204.593 321.580,203.575 319.466 C 201.691 315.553,201.157 313.557,201.924 313.298 C 202.564 313.083,205.696 318.024,207.138 321.525 C 208.504 324.843,208.925 324.444,207.640 321.048 C 205.369 315.044,200.187 308.943,200.187 312.273 " stroke="none" fill="#dcbb9a" fill-rule="evenodd"></path><path id="path4" d="M194.013 39.868 C 191.338 40.133,187.802 40.371,186.155 40.397 C 184.509 40.423,182.404 40.611,181.478 40.815 C 180.552 41.018,178.447 41.357,176.801 41.566 C 175.154 41.776,172.965 42.184,171.936 42.473 C 170.907 42.763,169.270 43.101,168.297 43.224 C 167.324 43.347,166.440 43.591,166.332 43.766 C 166.224 43.940,165.252 44.203,164.172 44.349 C 163.091 44.496,161.753 44.848,161.197 45.133 C 160.642 45.417,159.741 45.650,159.196 45.650 C 158.651 45.650,157.674 45.897,157.026 46.198 C 156.377 46.500,155.173 46.906,154.350 47.101 C 153.527 47.296,152.264 47.666,151.543 47.923 C 147.502 49.368,145.891 49.996,143.809 50.937 C 142.540 51.512,141.073 52.089,140.551 52.220 C 140.028 52.352,139.404 52.695,139.165 52.983 C 138.926 53.272,138.456 53.509,138.121 53.510 C 137.786 53.512,137.007 53.847,136.389 54.256 C 135.772 54.665,134.972 55.001,134.612 55.002 C 134.252 55.004,133.957 55.170,133.957 55.372 C 133.957 55.574,133.494 55.849,132.928 55.985 C 132.362 56.120,131.695 56.391,131.445 56.587 C 131.039 56.907,128.217 58.456,125.164 60.035 C 124.546 60.355,123.536 60.951,122.919 61.361 C 122.301 61.771,121.375 62.315,120.861 62.570 C 120.346 62.826,119.841 63.122,119.738 63.230 C 119.635 63.337,118.541 64.109,117.306 64.944 C 113.108 67.785,110.948 69.323,109.385 70.584 C 108.527 71.276,107.657 71.843,107.452 71.843 C 107.246 71.843,107.022 71.990,106.954 72.170 C 106.885 72.350,105.482 73.559,103.835 74.858 C 97.474 79.876,87.720 89.758,82.510 96.463 C 82.303 96.730,81.866 97.236,81.539 97.586 C 81.212 97.936,79.744 99.822,78.275 101.777 C 76.807 103.732,75.011 106.116,74.285 107.075 C 73.559 108.033,72.965 108.924,72.965 109.054 C 72.965 109.288,71.476 111.516,71.077 111.880 C 70.792 112.140,67.452 117.781,65.797 120.798 C 63.478 125.023,62.323 127.431,60.470 131.899 C 60.129 132.722,59.601 133.872,59.298 134.455 C 58.995 135.038,58.741 135.711,58.734 135.952 C 58.727 136.192,58.396 137.063,57.998 137.886 C 57.600 138.709,57.269 139.645,57.262 139.966 C 57.255 140.287,57.003 140.876,56.700 141.276 C 56.398 141.675,56.146 142.427,56.139 142.948 C 56.133 143.468,55.889 144.234,55.597 144.651 C 55.305 145.067,54.946 146.073,54.798 146.885 C 54.651 147.698,54.300 148.818,54.019 149.373 C 53.738 149.929,53.508 150.746,53.508 151.188 C 53.508 151.630,53.264 152.522,52.966 153.171 C 52.668 153.819,52.256 155.192,52.052 156.221 C 51.700 157.991,51.428 159.142,50.486 162.862 C 50.264 163.737,49.861 165.884,49.589 167.633 C 49.317 169.383,48.918 171.824,48.701 173.059 C 47.256 181.297,46.688 200.503,47.687 207.365 C 48.007 209.563,48.273 212.341,48.278 213.539 C 48.283 214.736,48.458 216.389,48.666 217.212 C 48.874 218.036,49.282 220.140,49.573 221.890 C 50.306 226.296,50.846 228.897,51.438 230.870 C 51.716 231.796,52.060 233.283,52.202 234.175 C 52.345 235.066,52.696 236.245,52.982 236.794 C 53.269 237.343,53.504 238.182,53.506 238.659 C 53.507 239.135,53.701 239.885,53.936 240.325 C 54.172 240.765,54.578 241.891,54.840 242.827 C 55.433 244.948,56.074 246.814,56.709 248.269 C 56.978 248.887,57.306 249.813,57.437 250.327 C 57.672 251.249,58.343 252.865,59.354 254.941 C 59.637 255.524,59.869 256.179,59.869 256.397 C 59.869 256.860,60.535 258.310,64.130 265.669 C 65.588 268.653,66.878 271.179,66.998 271.282 C 67.117 271.384,67.793 272.451,68.500 273.652 C 69.207 274.853,69.953 276.116,70.159 276.459 C 70.844 277.599,73.498 281.569,73.702 281.759 C 73.812 281.862,74.408 282.703,75.024 283.630 C 76.332 285.593,76.416 285.705,77.684 287.184 C 78.214 287.802,78.938 288.765,79.293 289.324 C 80.091 290.579,83.837 295.016,88.820 300.610 C 94.189 306.637,99.981 311.996,106.773 317.219 C 108.450 318.508,110.218 319.900,110.701 320.310 C 111.184 320.720,112.531 321.682,113.694 322.448 C 114.857 323.213,115.865 323.969,115.934 324.127 C 116.002 324.286,116.215 324.415,116.405 324.415 C 116.596 324.415,117.550 324.975,118.526 325.660 C 119.501 326.344,121.983 327.870,124.041 329.050 C 126.099 330.231,128.036 331.348,128.344 331.532 C 129.535 332.244,132.805 333.770,133.140 333.770 C 133.333 333.770,133.701 334.022,133.957 334.331 C 134.213 334.640,134.727 334.892,135.099 334.892 C 135.470 334.892,136.027 335.145,136.336 335.454 C 136.644 335.762,137.017 336.015,137.163 336.015 C 137.310 336.015,138.164 336.352,139.061 336.763 C 139.958 337.175,141.492 337.860,142.470 338.286 C 143.447 338.711,144.694 339.301,145.240 339.595 C 145.786 339.890,146.518 340.131,146.866 340.131 C 147.214 340.131,147.946 340.370,148.492 340.662 C 149.667 341.291,152.682 342.309,154.566 342.713 C 155.302 342.871,156.128 343.139,156.403 343.308 C 156.677 343.478,157.842 343.826,158.993 344.083 C 160.144 344.340,161.590 344.720,162.208 344.929 C 163.632 345.411,166.031 346.021,169.130 346.689 C 176.099 348.191,179.166 348.672,184.659 349.122 C 187.128 349.325,191.254 349.688,193.826 349.929 C 199.765 350.485,205.473 350.485,211.413 349.929 C 213.985 349.688,218.110 349.325,220.580 349.122 C 224.968 348.762,228.030 348.341,231.805 347.577 C 232.834 347.369,234.772 346.983,236.112 346.720 C 237.452 346.456,238.914 346.044,239.362 345.805 C 239.809 345.565,240.700 345.370,241.341 345.370 C 241.982 345.370,242.961 345.137,243.517 344.852 C 244.073 344.568,245.285 344.212,246.211 344.061 C 247.138 343.910,248.232 343.608,248.644 343.390 C 249.055 343.172,249.981 342.866,250.702 342.710 C 252.571 342.305,255.585 341.284,256.746 340.662 C 257.292 340.370,257.955 340.131,258.218 340.131 C 258.482 340.131,259.466 339.778,260.406 339.347 C 261.345 338.915,262.619 338.341,263.237 338.070 C 265.475 337.088,270.359 334.799,270.907 334.474 C 271.216 334.292,271.890 333.974,272.404 333.769 C 272.919 333.564,273.592 333.227,273.901 333.019 C 274.210 332.812,274.673 332.559,274.930 332.458 C 276.224 331.947,276.894 331.585,281.019 329.171 C 284.113 327.360,284.529 327.101,286.694 325.631 C 287.680 324.963,288.579 324.415,288.693 324.415 C 288.807 324.415,289.103 324.249,289.352 324.047 C 291.499 322.296,292.213 321.796,292.570 321.796 C 292.798 321.796,292.984 321.622,292.984 321.410 C 292.984 321.198,293.279 320.918,293.639 320.788 C 293.999 320.658,294.546 320.325,294.855 320.049 C 295.164 319.772,296.679 318.584,298.223 317.409 C 299.766 316.235,301.197 315.088,301.403 314.861 C 301.609 314.635,302.696 313.703,303.819 312.791 C 308.887 308.673,314.794 302.708,320.486 295.955 C 321.927 294.247,323.400 292.542,323.761 292.168 C 324.121 291.794,324.415 291.327,324.415 291.132 C 324.415 290.936,324.626 290.642,324.883 290.477 C 325.140 290.312,325.757 289.588,326.253 288.868 C 326.749 288.148,327.388 287.306,327.672 286.997 C 327.956 286.688,328.850 285.510,329.658 284.378 C 330.467 283.246,331.262 282.152,331.426 281.946 C 331.590 281.740,332.372 280.561,333.163 279.326 C 333.955 278.092,334.889 276.660,335.240 276.146 C 335.591 275.631,336.001 274.958,336.152 274.649 C 336.302 274.341,336.834 273.414,337.334 272.591 C 337.833 271.768,338.425 270.677,338.649 270.167 C 338.872 269.656,339.171 269.151,339.312 269.044 C 339.454 268.937,340.514 266.913,341.668 264.546 C 344.660 258.408,345.370 256.847,345.370 256.397 C 345.370 256.179,345.601 255.524,345.885 254.941 C 347.069 252.508,347.603 251.200,347.845 250.140 C 347.985 249.523,348.328 248.686,348.606 248.280 C 348.884 247.874,349.111 247.226,349.111 246.840 C 349.111 246.453,349.346 245.607,349.632 244.958 C 350.454 243.100,351.388 240.175,351.688 238.527 C 351.838 237.696,352.097 236.798,352.262 236.531 C 352.563 236.044,353.311 233.073,354.018 229.560 C 354.225 228.531,354.637 226.909,354.933 225.955 C 355.230 225.002,355.475 223.739,355.478 223.149 C 355.481 222.559,355.818 220.494,356.227 218.559 C 356.635 216.624,356.972 214.098,356.976 212.946 C 356.980 211.794,357.228 209.167,357.526 207.109 C 358.165 202.698,358.285 187.325,357.707 183.910 C 357.498 182.675,357.170 179.560,356.978 176.988 C 356.786 174.415,356.456 171.805,356.245 171.188 C 356.034 170.571,355.697 168.887,355.497 167.446 C 355.021 164.020,354.429 161.111,353.785 159.027 C 353.499 158.101,353.145 156.596,353.000 155.682 C 352.854 154.768,352.510 153.589,352.235 153.062 C 351.960 152.536,351.734 151.715,351.733 151.238 C 351.732 150.762,351.538 150.012,351.302 149.572 C 351.067 149.132,350.660 148.006,350.399 147.071 C 350.137 146.135,349.713 144.780,349.456 144.060 C 348.008 139.996,347.461 138.521,347.029 137.512 C 346.765 136.894,346.189 135.463,345.750 134.331 C 344.023 129.884,338.752 119.271,336.737 116.183 C 335.931 114.949,335.153 113.686,335.007 113.377 C 334.612 112.538,329.561 105.144,328.718 104.172 C 328.513 103.934,328.092 103.366,327.783 102.910 C 326.920 101.632,323.999 97.872,323.707 97.661 C 323.565 97.558,322.637 96.464,321.646 95.229 C 315.941 88.120,307.865 80.050,300.842 74.439 C 299.504 73.371,298.354 72.349,298.285 72.170 C 298.216 71.990,297.992 71.843,297.787 71.843 C 297.581 71.843,296.711 71.276,295.853 70.584 C 294.291 69.323,292.130 67.785,287.933 64.944 C 286.698 64.109,285.603 63.337,285.500 63.230 C 285.398 63.122,284.892 62.826,284.378 62.570 C 283.863 62.315,282.937 61.775,282.320 61.371 C 280.806 60.380,279.243 59.516,276.641 58.235 C 275.442 57.645,274.210 56.952,273.901 56.695 C 273.592 56.438,272.877 56.118,272.311 55.983 C 271.745 55.849,271.282 55.574,271.282 55.372 C 271.282 55.170,270.987 55.004,270.627 55.002 C 270.267 55.001,269.467 54.665,268.849 54.256 C 268.232 53.847,267.466 53.512,267.147 53.510 C 266.828 53.509,266.370 53.311,266.130 53.071 C 265.890 52.831,265.098 52.410,264.371 52.136 C 261.367 51.003,260.590 50.678,260.056 50.333 C 259.323 49.859,256.150 48.707,254.271 48.231 C 253.456 48.025,252.614 47.718,252.400 47.550 C 252.186 47.382,251.387 47.132,250.624 46.995 C 249.861 46.857,248.766 46.499,248.192 46.200 C 247.617 45.900,246.675 45.654,246.099 45.652 C 245.523 45.651,244.597 45.417,244.041 45.133 C 243.486 44.848,242.147 44.496,241.067 44.349 C 239.987 44.203,239.014 43.940,238.907 43.766 C 238.799 43.591,237.914 43.351,236.942 43.232 C 235.969 43.113,234.331 42.779,233.302 42.489 C 232.273 42.200,230.084 41.788,228.438 41.574 C 226.791 41.360,224.687 41.018,223.761 40.815 C 222.834 40.611,220.898 40.435,219.457 40.423 C 218.017 40.412,214.144 40.153,210.851 39.847 C 203.885 39.201,200.695 39.205,194.013 39.868 M208.534 43.247 C 213.581 44.992,220.511 49.365,226.909 54.843 C 229.734 57.261,231.384 59.222,234.130 63.424 C 236.871 67.617,237.461 68.590,238.456 70.553 C 239.607 72.824,242.010 74.642,244.341 75.005 C 249.902 75.870,254.467 78.062,257.069 81.116 C 257.721 81.881,258.629 82.928,259.086 83.442 C 268.521 94.053,269.869 98.706,268.300 115.248 C 268.095 117.409,267.920 122.629,267.911 126.848 C 267.903 131.066,267.758 136.918,267.590 139.851 C 267.102 148.382,267.679 153.415,269.554 156.969 C 270.571 158.898,270.560 178.155,269.540 180.903 C 268.721 183.108,267.540 187.488,267.540 188.319 C 267.540 191.101,263.803 194.946,261.091 194.954 C 257.057 194.966,250.939 198.395,249.406 201.504 C 248.612 203.114,248.403 233.065,249.172 235.087 C 249.352 235.559,251.074 237.545,253.000 239.502 C 254.926 241.458,257.014 243.643,257.641 244.357 C 258.267 245.071,260.309 246.538,262.178 247.617 C 264.047 248.695,265.808 249.860,266.090 250.205 C 266.638 250.873,273.182 254.069,274.003 254.069 C 274.271 254.069,275.098 254.379,275.841 254.757 C 277.525 255.616,280.437 256.649,285.500 258.182 C 287.661 258.836,289.986 259.694,290.667 260.088 C 291.347 260.482,292.189 260.806,292.538 260.807 C 292.886 260.808,293.643 261.055,294.219 261.356 C 294.796 261.656,295.806 262.064,296.464 262.262 C 297.123 262.459,300.103 263.569,303.087 264.727 C 311.229 267.888,316.240 269.714,317.493 269.977 C 318.110 270.107,319.205 270.443,319.925 270.723 C 320.645 271.003,322.498 271.582,324.041 272.008 C 334.488 274.895,334.472 274.852,328.161 283.068 C 327.370 284.097,326.162 285.723,325.476 286.681 C 317.160 298.289,303.926 311.162,290.725 320.486 C 289.268 321.515,287.871 322.526,287.620 322.732 C 286.505 323.647,284.678 324.803,281.197 326.798 C 279.139 327.977,277.203 329.091,276.894 329.272 C 275.803 329.914,267.312 334.083,264.359 335.427 C 262.713 336.176,260.889 337.036,260.306 337.338 C 259.724 337.639,259.076 337.886,258.866 337.886 C 258.657 337.886,257.955 338.131,257.306 338.430 C 255.504 339.263,252.942 340.145,251.076 340.577 C 250.150 340.791,249.224 341.093,249.018 341.248 C 248.812 341.403,247.995 341.647,247.203 341.790 C 246.410 341.933,245.232 342.274,244.583 342.549 C 243.935 342.823,241.721 343.412,239.663 343.858 C 237.605 344.303,235.332 344.833,234.612 345.035 C 227.980 346.897,206.802 348.657,196.819 348.176 C 186.430 347.676,173.464 345.999,167.820 344.427 C 166.586 344.083,164.639 343.587,163.494 343.326 C 162.350 343.064,160.834 342.666,160.127 342.442 C 159.419 342.218,157.577 341.674,156.034 341.233 C 154.490 340.792,152.722 340.206,152.105 339.932 C 151.487 339.658,150.561 339.328,150.047 339.198 C 149.532 339.068,148.775 338.813,148.363 338.633 C 147.951 338.452,146.352 337.768,144.808 337.114 C 136.932 333.774,125.745 328.181,124.199 326.810 C 123.874 326.522,123.488 326.286,123.342 326.286 C 123.195 326.286,122.619 325.967,122.062 325.576 C 121.504 325.185,119.869 324.105,118.428 323.176 C 116.988 322.247,115.278 321.093,114.628 320.612 C 113.978 320.132,113.075 319.486,112.621 319.177 C 104.153 313.420,88.880 298.940,83.630 291.690 C 83.218 291.121,82.704 290.464,82.487 290.230 C 81.319 288.968,77.312 283.723,76.088 281.856 C 75.311 280.671,74.581 279.616,74.466 279.514 C 71.761 277.088,72.399 275.776,77.268 273.745 C 79.121 272.972,81.835 271.765,83.301 271.063 C 84.767 270.360,86.231 269.785,86.553 269.785 C 86.876 269.785,87.242 269.619,87.367 269.417 C 87.651 268.958,92.754 267.431,96.726 266.616 C 100.634 265.815,105.031 264.618,106.511 263.953 C 107.160 263.662,107.875 263.424,108.100 263.424 C 108.326 263.424,109.563 262.935,110.850 262.337 C 118.032 259.002,123.888 256.746,127.970 255.739 C 132.068 254.729,133.468 254.342,137.677 253.056 C 140.381 252.230,142.684 251.757,143.930 251.772 C 148.052 251.821,150.037 250.333,153.592 244.528 C 154.600 242.881,155.955 240.861,156.602 240.037 C 159.553 236.286,160.373 233.820,160.801 227.412 C 161.110 222.789,161.155 222.607,162.274 221.425 C 164.345 219.238,164.555 216.076,162.828 213.088 C 162.593 212.681,162.166 211.674,161.880 210.851 C 159.234 203.240,157.990 200.783,156.979 201.170 C 155.954 201.564,154.487 198.438,154.500 195.889 C 154.503 195.282,154.440 195.247,154.157 195.702 C 153.864 196.170,153.716 196.125,153.217 195.416 C 152.890 194.953,152.381 194.574,152.085 194.574 C 151.349 194.574,150.410 192.289,150.893 191.674 C 151.095 191.417,151.137 191.207,150.985 191.207 C 150.833 191.207,150.945 190.828,151.233 190.365 C 152.157 188.880,151.909 185.762,150.876 185.872 C 150.395 185.924,149.928 185.719,149.807 185.405 C 149.489 184.576,148.264 184.727,147.977 185.632 C 147.209 188.050,146.951 185.685,145.622 164.079 C 145.454 161.355,145.158 159.578,144.746 158.826 C 143.894 157.271,143.413 154.286,143.725 152.479 C 144.678 146.946,143.653 135.697,141.884 132.273 C 141.436 131.407,141.278 129.574,141.188 124.242 C 141.124 120.442,140.905 116.821,140.701 116.197 C 139.533 112.623,140.412 97.048,141.954 93.986 C 142.726 92.453,144.446 86.290,145.253 82.168 C 145.619 80.293,147.575 75.474,148.380 74.462 C 148.626 74.153,148.976 73.480,149.159 72.965 C 149.906 70.862,151.944 67.396,152.927 66.559 C 154.076 65.581,158.291 60.778,159.775 58.756 C 161.445 56.483,164.781 53.305,166.752 52.110 C 168.423 51.098,169.999 50.408,174.829 48.573 C 175.391 48.359,176.293 48.296,176.834 48.431 C 177.477 48.593,178.677 48.358,180.302 47.753 C 181.669 47.244,183.377 46.713,184.097 46.573 C 184.818 46.433,185.912 46.020,186.529 45.657 C 191.778 42.565,203.004 41.336,208.534 43.247 M192.546 124.805 C 192.415 125.328,192.175 125.674,192.014 125.574 C 191.853 125.475,191.227 125.719,190.622 126.118 C 190.018 126.517,188.966 126.844,188.285 126.845 C 184.802 126.852,182.593 128.211,182.811 130.215 C 182.867 130.730,182.926 131.341,182.944 131.573 C 182.985 132.137,184.613 132.745,186.904 133.052 C 187.933 133.190,188.943 133.434,189.149 133.594 C 190.464 134.617,193.478 135.910,194.644 135.952 C 195.402 135.979,195.950 136.073,195.862 136.162 C 195.774 136.250,196.079 136.589,196.541 136.915 C 198.073 137.998,201.334 137.728,202.652 136.410 C 202.947 136.114,203.566 135.952,204.027 136.050 C 206.785 136.633,208.493 135.738,208.946 133.472 C 209.076 132.823,209.529 131.575,209.952 130.701 C 210.848 128.852,210.773 127.849,209.724 127.652 C 209.315 127.575,208.841 127.270,208.670 126.973 C 208.428 126.552,207.484 126.443,204.367 126.475 C 199.197 126.529,199.439 126.555,199.439 125.959 C 199.439 125.539,198.353 125.084,196.745 124.831 C 196.601 124.808,196.272 124.579,196.015 124.322 C 195.109 123.416,192.814 123.735,192.546 124.805 M226.247 142.475 C 226.123 142.676,225.470 142.955,224.797 143.095 L 223.573 143.349 224.469 143.840 C 225.066 144.167,225.794 144.234,226.650 144.041 C 228.269 143.676,228.551 143.401,227.649 143.067 C 227.260 142.923,226.836 142.648,226.707 142.457 C 226.565 142.246,226.385 142.253,226.247 142.475 M218.996 149.660 C 217.437 151.112,217.566 152.502,219.347 153.456 C 220.773 154.219,221.598 153.519,221.312 151.790 C 220.837 148.923,220.309 148.437,218.996 149.660 M223.761 150.073 C 223.761 150.661,223.962 150.818,224.599 150.728 C 225.842 150.550,225.952 149.298,224.723 149.298 C 223.999 149.298,223.761 149.490,223.761 150.073 M186.208 150.874 C 185.779 152.476,185.933 153.415,186.623 153.409 C 188.360 153.393,188.752 151.548,187.232 150.543 C 186.508 150.065,186.417 150.095,186.208 150.874 M220.393 151.356 C 220.393 152.129,219.686 152.418,219.063 151.901 C 218.585 151.504,218.598 151.383,219.169 150.966 C 219.904 150.428,220.393 150.584,220.393 151.356 M175.130 151.070 C 173.543 151.694,173.271 152.792,174.482 153.685 C 176.492 155.168,177.041 154.820,176.530 152.385 C 176.190 150.770,176.102 150.688,175.130 151.070 M176.239 152.688 C 176.239 153.485,175.959 153.581,175.141 153.063 C 174.697 152.782,174.689 152.621,175.090 152.137 C 175.679 151.428,176.239 151.697,176.239 152.688 M181.601 156.306 C 179.930 156.458,178.733 157.364,179.542 157.865 C 180.253 158.304,182.487 157.996,183.524 157.317 C 184.621 156.598,184.763 156.005,183.817 156.099 C 183.457 156.135,182.459 156.228,181.601 156.306 M150.090 171.251 C 150.066 171.491,149.938 171.997,149.805 172.374 C 149.617 172.905,149.667 172.963,150.027 172.631 C 150.282 172.396,150.411 171.890,150.312 171.508 C 150.214 171.126,150.114 171.011,150.090 171.251 M199.824 173.350 C 197.309 174.623,197.460 175.980,200.233 177.034 C 203.608 178.318,203.481 178.323,203.752 176.878 C 204.227 174.345,201.932 172.284,199.824 173.350 M154.911 195.543 C 154.911 195.833,155.037 196.069,155.192 196.065 C 155.538 196.058,156.667 195.347,156.408 195.300 C 156.305 195.281,155.926 195.209,155.566 195.140 C 155.192 195.069,154.911 195.242,154.911 195.543 M240.648 290.066 C 240.621 290.416,240.371 290.836,240.093 291.001 C 238.922 291.693,239.041 297.023,240.243 297.773 C 241.428 298.513,241.661 297.338,241.153 293.171 C 240.902 291.113,240.674 289.716,240.648 290.066 M201.603 313.395 C 201.181 313.817,202.105 316.620,203.739 319.880 C 204.667 321.730,205.426 323.381,205.427 323.549 C 205.429 323.717,205.834 324.359,206.328 324.977 L 207.227 326.099 207.696 325.071 C 208.301 323.743,206.879 320.029,204.207 315.959 C 202.477 313.323,202.073 312.926,201.603 313.395 M203.908 316.277 C 204.790 318.347,205.000 319.177,204.645 319.177 C 204.457 319.177,204.303 318.933,204.303 318.634 C 204.303 318.336,204.054 317.952,203.749 317.781 C 203.130 317.435,202.521 315.061,203.052 315.061 C 203.238 315.061,203.624 315.608,203.908 316.277 " stroke="none" fill="#c3c3c3" fill-rule="evenodd"></path></g></svg>